<svg id="Map" xmlns="http://www.w3.org/2000/svg" width="1279.998" height="474.158" viewBox="0 0 1279.998 474.158">
  <path id="Path_58" data-name="Path 58" d="M344.1,254.226c.118,0,.256.024.394.024a2.2,2.2,0,0,0,1.35-.706,2.761,2.761,0,0,1,1.038-.662,5.654,5.654,0,0,1,.394-1.729,5.877,5.877,0,0,1-1.367,1.023c-.838.512-1.709,1.047-1.856,2.05Z" transform="translate(565.885 -113.957)" fill="#881d1f"/>
  <path id="Path_59" data-name="Path 59" d="M296.947,270.833a.55.55,0,0,0,.247-.077c-.059-.014-.121-.041-.182-.059a3.077,3.077,0,0,1-.691-.144A1.056,1.056,0,0,0,296.947,270.833Z" transform="translate(473.246 -76.306)" fill="#881d1f"/>
  <path id="Path_60" data-name="Path 60" d="M302.63,268.167c-.109.206-.227.4-.344.588a2.048,2.048,0,0,0,.194-.168,2.54,2.54,0,0,0,.288-.323Z" transform="translate(484.822 -80.938)" fill="#881d1f"/>
  <path id="Path_61" data-name="Path 61" d="M175.357,277.567c-.023-.027-.059-.053-.085-.082a3.917,3.917,0,0,1-.356-.259l.029.05A.582.582,0,0,0,175.357,277.567Z" transform="translate(237.635 -63.358)" fill="#881d1f"/>
  <path id="Path_62" data-name="Path 62" d="M345.7,250.641a.7.7,0,0,1-.344.159,2.283,2.283,0,0,1-.038.388C345.438,251.006,345.564,250.82,345.7,250.641Z" transform="translate(568.338 -114.951)" fill="#881d1f"/>
  <path id="Path_63" data-name="Path 63" d="M389.965,291.916a.882.882,0,0,0-.141.424l.235-.506A.5.5,0,0,0,389.965,291.916Z" transform="translate(654.707 -35.008)" fill="#881d1f"/>
  <path id="Path_64" data-name="Path 64" d="M144.832,318.906a1.543,1.543,0,0,0-.306-.418c.112.2.218.368.324.532A.932.932,0,0,0,144.832,318.906Z" transform="translate(178.657 16.722)" fill="#881d1f"/>
  <path id="Path_65" data-name="Path 65" d="M235.2,297.137l-.062.074c-.021.035-.024.176.279.653l.1-.138.247-.438-.059-.023c-.179-.012-.379-.076-.494-.076v-.047Z" transform="translate(354.497 -24.716)" fill="#881d1f"/>
  <path id="Path_66" data-name="Path 66" d="M34.626,207.757c1.3,1.456,2.77,2.8,4.7,2.8a5.138,5.138,0,0,0,2.311-.6c1.438-1.138.941-2.276.465-3.379a4.876,4.876,0,0,1-.532-1.882c-.462,0-.929.026-1.4.053s-.932.053-1.394.053a7.008,7.008,0,0,1-1.612-.159,5.164,5.164,0,0,0-1.1-.144" transform="translate(-34.626 -204.499)" fill="#881d1f"/>
  <path id="Path_67" data-name="Path 67" d="M666.3,357.013l-.033-28.607a1.35,1.35,0,0,0-.609-.159.738.738,0,0,0-.4.1,7.894,7.894,0,0,0-2.452-.468,4.97,4.97,0,0,1-3.652-1.341l-1.617-2.088c-1.085-2.573-3.029-2.92-4.785-2.92-.665,0-1.353.056-2.25.132a4.609,4.609,0,0,0-1.367-.174c-.35,0-.7.021-1.047.044s-.691.044-1.035.044a3.45,3.45,0,0,1-2.62-.947,4.184,4.184,0,0,0-3.591-2.288,9.807,9.807,0,0,0-4.111,1.312l-3.958-.023-3.652-1.17c-3.264-2.676-7.214-3.926-11.028-5.132a51.776,51.776,0,0,1-6.975-2.588,38.526,38.526,0,0,1-6.717-3.914c-3.493-2.361-7.1-4.8-11.76-5.184-4.87-.4-8.152-1.5-9.757-3.264a7.056,7.056,0,0,0-5.437-2.626,16.677,16.677,0,0,0-4.217.744l-.932.241a19.622,19.622,0,0,0-4.538,2.035c-.656.362-1.312.723-1.973,1.047-.711.3-1.417.617-2.123.932a46.892,46.892,0,0,1-5.09,2.041c-.265.085-.529.156-.794.224-1.2.318-2.285.682-2.576,2.023l-.006.032a3.021,3.021,0,0,0-.118.785l-.032,2.623c-.306.538.162,1.135.612,1.709.391.5.8,1.017.65,1.453-.129.379-.65.682-1.641.97a1.669,1.669,0,0,0-.123.535l-1.1.624-.518.171a4.324,4.324,0,0,0-1.111-.218,5.012,5.012,0,0,0-2.029.7,1.869,1.869,0,0,1-1.356.456c-.235,0-.47-.021-.709-.038s-.479-.038-.715-.038a1.818,1.818,0,0,0-1.809.985,6.1,6.1,0,0,0-.582.232,2.891,2.891,0,0,1-1.17.323h-.012c-.918-.079-1.811-.132-2.667-.132-3.361,0-6.872.794-7.393,6.69a3.391,3.391,0,0,1-.165.75c-.015.038-.023.076-.038.115-.677,1.838-2.8,3.146-3.77,3.664-4.526,1.011-6.949,3.549-7.411,7.752a3.178,3.178,0,0,1-.779,1.567,4.645,4.645,0,0,0-.579.879c-.3.318-.626.615-.95.909-1.044.944-2.121,1.92-2.221,3.505a8.52,8.52,0,0,1-1.241.456,3.624,3.624,0,0,0-2.567,1.755l-2.011,2.847-.876.173a36.63,36.63,0,0,1-7,.944,10.7,10.7,0,0,1-8.784-4.026l-.7-1.676c.009-.22-.062-.382-.191-.409a.636.636,0,0,0,.006-.8,5.517,5.517,0,0,1,.9-1.723c.832-1.229,1.691-2.5.021-4.14a2.089,2.089,0,0,0-1.441-.709,3.23,3.23,0,0,0-1.868.95,4.446,4.446,0,0,0-.561.509l-.038.029-1-2.838a15.262,15.262,0,0,1,.029-2.535c.168-2.482.338-5.046-2.994-6.358-.077-.241-.126-.479-.191-.776a6.3,6.3,0,0,0-1.556-.221,3.065,3.065,0,0,0-.515.115,2.787,2.787,0,0,0-.409.094,2.739,2.739,0,0,0-1.02.538c-.071.062-.147.124-.215.194a7.544,7.544,0,0,0-1.526,3.279l-2.023-2.638-1.835-2.35a4.366,4.366,0,0,0,.209-1.309c-2.438-3.232-2.373-6.975-2.311-10.6.015-.794.026-1.585.015-2.391-.573-2.514.3-4.767,1.138-6.94a20.367,20.367,0,0,0,1.2-3.841l.07-3.635c.306-2.829-.885-5.135-3.623-7.04l-1.429-1.814a7.788,7.788,0,0,0-.365-.782c-.406-.776-.785-1.511-.312-2.353a4.655,4.655,0,0,0,.812-3.482c-.368-1.247-1.691-1.944-3.226-2.75-.426-.221-.87-.456-1.314-.712a7.781,7.781,0,0,0-4.046-1.012,23.148,23.148,0,0,0-2.785.223,22.548,22.548,0,0,1-2.685.218,7.411,7.411,0,0,1-2.606-.418,4.749,4.749,0,0,0-2.917-1.22,1.727,1.727,0,0,0-.82.162c.074-.221-.032-.418-.341-.606-1.385-.006-2.173-.856-3.008-1.753a5.92,5.92,0,0,0-1.853-1.511l-.385.094-.291.115a4.288,4.288,0,0,0-.362-.5,3.9,3.9,0,0,0-2.091-.512h-.029a3.264,3.264,0,0,0-.8.173,33.962,33.962,0,0,0-9.837-4.1l-1.306-.153a23.818,23.818,0,0,0-2.985-.253,8.5,8.5,0,0,0-2.588.365l-5.914.082-3.161,1.759-2.553,1.256-.759,1.168a2.36,2.36,0,0,0-.459.112,3.664,3.664,0,0,0-3,2.394,3.115,3.115,0,0,1-2.57,1.253h-.02a.759.759,0,0,0-.474.162c-.023.012-.023.035-.044.05-.032.038-.079.059-.1.115a9.2,9.2,0,0,0-2.194-.326,3.262,3.262,0,0,0-2.764,1.291,4.618,4.618,0,0,0-.524.77.582.582,0,0,1-.085.141c-.129-.271-.256-.55-.4-.882a6.108,6.108,0,0,0-1.87-.288,13.179,13.179,0,0,0-4.032.862l-1.05.332c-2.617,2.194-3.952,4.64-4.108,7.381a10.128,10.128,0,0,0-.015,1.891,7.513,7.513,0,0,1-.7-1.588c-.429-1.238-.87-2.517-2.52-2.873-.215-.035-.438-.062-.656-.085a7.179,7.179,0,0,1-1.194-.2,3.776,3.776,0,0,1-.262-2.52,5.727,5.727,0,0,0,.032-1.256l-.906-.285a2.52,2.52,0,0,0-1.314-.456,1.507,1.507,0,0,0-1.294.782c-.132-.012-.409-.023-.415-.023a23.9,23.9,0,0,0-4.664,1.085,4.406,4.406,0,0,1-1.556.782l-1.794-.118-1.847-.094-.491.479c-.238.015-.477.029-.729.062a1.886,1.886,0,0,0-1.006,1.135,1.822,1.822,0,0,0-.188.406.483.483,0,0,0,.012.1c-.006.035-.029.053-.032.091-.92,1.117-.723,2.494-.456,3.77l.009.053h0l.012.065a11.391,11.391,0,0,0,1.941-.615,7.891,7.891,0,0,1,2.779-.691,4.485,4.485,0,0,1,1.15.153,6.194,6.194,0,0,1,.6,2.52c.121,1.273.247,2.588,1.426,3.508a15.685,15.685,0,0,0,6.769,6.928,1.756,1.756,0,0,0,1.723,1.117,4.364,4.364,0,0,0,2.6,1.17,6.8,6.8,0,0,1,1.662.482l.388.3.4-.044a3.415,3.415,0,0,0,2.167.853,3.888,3.888,0,0,0,2.2-.779c.2-.018.415-.021.624-.027.815-.015,1.659-.026,2.132-.9l11.736,4.49c1.562,1.226,1.447,2.8,1.323,4.47a5.623,5.623,0,0,0,.511,3.629c-.041,3.493,2.273,5.117,5.073,6.737a7.3,7.3,0,0,0,1.782.653c1.388.379,2.694.735,3.052,2.606a3.452,3.452,0,0,0,2.338,1.461,2.411,2.411,0,0,0,1.688-.862c.159-.659.579-1.365,1.291-1.365a1.246,1.246,0,0,1,.335.053c.632.188,1.332.279,2,.418.2.041.406.088.609.126a32.181,32.181,0,0,0,5.955.57c2.747,0,5.54-.259,8.243-.506l2.191-.2a37.734,37.734,0,0,0,6.226.62,18.67,18.67,0,0,0,4.949-.618,9.241,9.241,0,0,0,1.306-.926,8,8,0,0,0,1.941-.353,7.963,7.963,0,0,1,1.909-.347,1.88,1.88,0,0,1,1.379.509,2.79,2.79,0,0,1-.285,1.811c-1.723,2.485-2.888,3.749-4.461,3.749a9.643,9.643,0,0,1-4.182-1.6l-.635-.368A7.88,7.88,0,0,0,450,320.545a3.985,3.985,0,0,0-2.364.812,10.572,10.572,0,0,0-6.858,4.12,2.744,2.744,0,0,0-2.135,2.846,1.684,1.684,0,0,0-.841.221c-1.071.147-1.414,1.041-1.747,1.9-.365.95-.709,1.847-2.017,1.861-2.176-2.032-7.728-2.941-12.263-2.941-4.458,0-7.993.806-9.454,2.156a1.4,1.4,0,0,0-.35,1.9c1.329,2.941,2.7,5.978,6.461,5.978a8.322,8.322,0,0,0,1.082-.076,13.426,13.426,0,0,1,1.741-.12c3.458,0,6.111,1.565,8.143,4.69a17.791,17.791,0,0,1,1.344,2.6l-.038.079c.762,2.65,2.576,4.405,5.852,5.64l.379,1.841-2.117,3.935a10.769,10.769,0,0,0,.08,8.119,7.01,7.01,0,0,0,3.826,3.864A2.975,2.975,0,0,0,440.045,371l.064.021a1.958,1.958,0,0,0,.626.182,4.876,4.876,0,0,0,2.429-1.038l.571-.379,2.846.182a4.043,4.043,0,0,0,2.582,1.353,7.662,7.662,0,0,1,1.491.462,8.334,8.334,0,0,0,3.444,2.811,15.842,15.842,0,0,1,1.941,1.188l.4.318a3.762,3.762,0,0,0,2.006,1.062,1.544,1.544,0,0,0,1.3-.935c.991-1.709-1.194-3.094-1.912-3.547a19.31,19.31,0,0,0-1.917-1.032c-1.726-.853-3.511-1.735-4.329-3.758l2.2-2.517c2.435-.853,2.164-2.5,1.9-4.087a5.713,5.713,0,0,1-.088-2.238,6.9,6.9,0,0,1,3.588-1.238,4.46,4.46,0,0,1,3.058,1.285,3.075,3.075,0,0,0,2.694,1.285,5.712,5.712,0,0,1,1.47.277l1.482.879c3.6,2.123,7.319,4.317,9.631,8.19a1.916,1.916,0,0,0,.447.056,1.3,1.3,0,0,0,1.241-.891,2.662,2.662,0,0,0,.809-1.041c.3-.55.591-1.07,1.059-1.07a1.739,1.739,0,0,1,1.1.668,44.746,44.746,0,0,0,9.678,7.393l2.088,1.1.715-.206a4.448,4.448,0,0,1,.215.409,1.928,1.928,0,0,0,.759.173c.738,1.994,2.523,2.585,4.249,3.155l.862.294,3.05.785c1.8.285,3.6.515,5.4.744,2.494.32,4.984.641,7.475,1.1,11.451,2.123,21.782,6.817,30.383,11.133l5,1.644c1.641.606,3.317,1.115,4.99,1.626a63.852,63.852,0,0,1,7.2,2.506c.053.023.1.05.153.073.738.329,1.464.685,2.17,1.079.191.8.776.888,1.341.973a2.16,2.16,0,0,1,.829.241l.538.238.75.359c0,.018.044.323.053.332a31.693,31.693,0,0,0,4.634,3.626c3.232,2.22,6.578,4.514,7.663,8.91l.185.862.223.906c.353.221.709.432,1.071.644,1.976,1.165,3.844,2.267,4.505,4.8l.3,1.176c1.394,5.393,2.829,10.972,7.7,14.833a5.307,5.307,0,0,1,1.67,5.252,12.115,12.115,0,0,0-.835,2.106,10.9,10.9,0,0,1-.976,2.35,5.155,5.155,0,0,0-.282.661l-.018.041a3.53,3.53,0,0,0-.321,1.168,2.19,2.19,0,0,0,.021.5,2.422,2.422,0,0,0,.018.388,2.307,2.307,0,0,0,1.1,1.132c.029.014.062.029.088.044a3.706,3.706,0,0,0,.6.312l-.091.059.009,0c.018,0,.053-.032.085-.062a.534.534,0,0,0,.059.029v.006l-.17.115.176-.1a2.154,2.154,0,0,0,.538.862c.45.511.871.994.159,1.844-1.044,1.247-.726,2.579-.168,3.8.056.141.1.285.165.424a5.751,5.751,0,0,0-2.876.982c-1.117,1.415-2.8,1.612-4.426,1.8-1.741.2-3.544.412-4.67,2.079-6.649,3.723-9.56,10.2-12.377,16.465-.491,1.1-.982,2.194-1.456,3.241-.147.044-.2.147-.3.223l-.044.035a.727.727,0,0,0-.221.535c0,.012,0,.024,0,.035a1.073,1.073,0,0,0-.009.326,15.359,15.359,0,0,1-.747,1.376c-.929,1.582-1.888,3.223-.485,5.249a2.512,2.512,0,0,0,1.359,1.032,1.012,1.012,0,0,0,.135.038,1.9,1.9,0,0,0,.415.121,4.841,4.841,0,0,0,1.873-.55,4.77,4.77,0,0,1,1.876-.538l1.912.1a10.163,10.163,0,0,1,2.735-.388,9.79,9.79,0,0,1,4.7,1.247,10.717,10.717,0,0,0,4.928,1.476,5.386,5.386,0,0,0,2.635-.656,7.1,7.1,0,0,1,3.508-.917,15.913,15.913,0,0,1,4.479.882l.359.1a8.818,8.818,0,0,0,1.538-.479,5.136,5.136,0,0,0,1.05.12,3.066,3.066,0,0,0,2.205-.879l-.041-.047h0l.385.085a4.034,4.034,0,0,0,2.255-1.759c2.373-3.252,3.355-4.6,5.064-4.6,1.191,0,2.776.65,5.432,1.741,2.126-.041,4.346-.226,6.075-1.9.133-.141.271-.256.359-.365a4.133,4.133,0,0,0,1.315.194,11.531,11.531,0,0,0,1.938-.223,11.258,11.258,0,0,1,1.92-.224,5.343,5.343,0,0,1,.6.035l.338,0a10.074,10.074,0,0,1,2.108.22c.156.038.315.062.477.088a1.832,1.832,0,0,1,1.153.465,2.112,2.112,0,0,0,.779.182l.088,0a4.259,4.259,0,0,0,2.235,2.355,5.675,5.675,0,0,1,1.8,1.47,4.779,4.779,0,0,0,2.741,2.62l.373.2,1.335.794.468.259c.265,1.126,1.194,1.506,2.144,1.891a24.221,24.221,0,0,1,4.023,4.978c1.529,2.282,3.114,4.638,5.62,6.149a9.5,9.5,0,0,1,2.494,2.55c1.038,1.362,2.153,2.694,3.964,3.038l.1.018a4.018,4.018,0,0,0,.721.127,5.034,5.034,0,0,0,.72-.047l1.041-.076v-64c0-.018-.279-.012-.3-.024,0,0-.315.012-.329.015-1.767-4.417-1.026-8.7.626-13.771ZM430.97,345.868a.5.5,0,0,1,.094-.082l-.235.506A.879.879,0,0,1,430.97,345.868Z" transform="translate(613.702 -88.959)" fill="#881d1f"/>
  <path id="Path_68" data-name="Path 68" d="M35.28,223.1a1.373,1.373,0,0,0,.776.879l-.024.018a1.425,1.425,0,0,1,.035.918L42.788,235.9a5.809,5.809,0,0,0,2.738,2.591l.57.344,4.99,4.767,2.867,4.073c.57,1.729,2.082,2.329,3.541,2.908,1.417.565,2.888,1.15,3.449,2.785A2.943,2.943,0,0,0,63,255.381l4.6,4.179c.247.368.462.762.676,1.156a5.331,5.331,0,0,0,2.529,2.75,20.245,20.245,0,0,1,15.039,9.948,6.282,6.282,0,0,0,1.788,1.658,8.859,8.859,0,0,1,1.012.812l-.065.065.006,0c.012,0,.038-.038.059-.065l.05.038-.115.118.132-.1h0c.347,1.465.706,2.979,2,3.988a24.37,24.37,0,0,0,5.317,5.387c2.435,2.006,4.929,4.067,6.17,7.055.015.038.035.071.05.106a10.3,10.3,0,0,1,.423,1.359c.074.291.118.6.165.911a10.138,10.138,0,0,1,.153,1.106c-1.37,2.194-1.294,4.443.226,6.866.938,2.335,3.05,2.426,4.917,2.506l.532.026c4.067.218,7.778,1.758,11.548,3.305l.776,1.288c2.685.6,4.5,2.458,6.255,4.252.518.529,1.038,1.061,1.567,1.55.647,1.018,1.488,2.056,2.841,2.056a.663.663,0,0,0,.438-.112h.012c-.041.653-.021,1.306,0,1.961a14.261,14.261,0,0,1-.138,3.091c.506,1.588,1.079,3.155,1.653,4.72,1.432,3.917,2.914,7.969,3.247,12.272a33.089,33.089,0,0,0,2.594,9.787,34.864,34.864,0,0,1,2.544,9.16c.094,1.041,1.115,1.706,1.988,2.082l.335-.047.321.265c6.19,1.485,11.969,3.344,14.677,9.716a12.815,12.815,0,0,0,2.867,4.784,18.91,18.91,0,0,1,2.15,2.994c.3.641.715,1.3,1.464,1.3a1.163,1.163,0,0,0,.447-.085,5.283,5.283,0,0,0,2.982,2.829l1.244,1.85,1.235,1.8a1.95,1.95,0,0,0-.05.759c.462.823.909,1.65,1.356,2.479A50.016,50.016,0,0,0,178,397.281l.138-.121.071-.029c-.194,1.059-.3,2.247.835,3.1,3.355,2.217,4.47,5.7,5.549,9.072a26.462,26.462,0,0,0,2.305,5.667,8.368,8.368,0,0,0,3.176,4.543,3.354,3.354,0,0,1,1.4,1.95l.179.268.029.071.035.035c-4.02,3.761-3.876,5.176,1.112,10.81l5.087,6.452a4.888,4.888,0,0,0,1.5,2.123c.509.388,1.026.75,1.547,1.112.735.512,1.467,1.029,2.167,1.6a9.532,9.532,0,0,0,1.759.953,2.562,2.562,0,0,0,.879,1.471c.782,2.761,2.417,4.937,4.617,7.313-.068,1.726,1.044,2.611,2.117,3.467.3.235.6.476.879.732a52.279,52.279,0,0,0,10.04,7.1,2.245,2.245,0,0,0,1.226,1.464,1.854,1.854,0,0,0,.709.144c.041-.006.079-.015.118-.024l.074.109v.259l1.012.47L227.8,468a2.289,2.289,0,0,0,.453,2.041,13.321,13.321,0,0,1,1.47,3.858c.653,2.426,1.326,4.934,4.185,6.117a3.145,3.145,0,0,0,3.111,1.923h.076l4.011,3.326a3.237,3.237,0,0,0,2.6,1.676h.038l2.276,1.791a4.333,4.333,0,0,0,2.805,2.091,4.988,4.988,0,0,1,2.414,2.488c.785,1.314,1.6,2.673,3.479,2.673h.018a.834.834,0,0,0,.438.55c.035.024.088.02.126.035a.907.907,0,0,0,.35.1,1.713,1.713,0,0,0,.2-.012c2.435,2.805,5.6,4.558,8.663,6.252l1.559.853c5.873,3.208,11.948,6.528,14.654,13.474.929,2.247,2.805,3.567,4.623,4.843.4.282.8.562,1.165.815l.071.4c.332,1.885.673,3.829,3.017,3.964a2.244,2.244,0,0,0,2.126,1.72l1.506.147c1.188,2.379,2.388,3.488,3.779,3.488a4.819,4.819,0,0,0,3.129-1.585,5.974,5.974,0,0,0,.056-.621,2.67,2.67,0,0,1,.253-1.226c.438-.723-.026-1.47-.473-2.194-.368-.591-.712-1.153-.553-1.656.115-.353.479-.656,1.114-.918a3.5,3.5,0,0,1,1.356-.282c1.711,0,3.138,1.367,4.058,2.4,2.061,2.3,4.658,2.606,6.925,2.606.35,0,.7-.006,1.091-.035l.418-.315c.524-.382,1.065-.776,1.115-1.338a1.762,1.762,0,0,0-.644-1.294c-1.088-.75-.929-1.694-.762-2.694a4.675,4.675,0,0,0,.1-1.206,1.692,1.692,0,0,1,1.347-.788,3.66,3.66,0,0,1,1.453.456,6.067,6.067,0,0,1,.938.512c.179.276.365.562.726.562l.106,0a.36.36,0,0,1,.244.082l.965,2.126,4.073,4.479,1.9,2.064a8.534,8.534,0,0,0,.853.044,5.217,5.217,0,0,0,3.876-1.465c1.382-1.4,2.062-3.805,2.014-7.14l.215-9.581.7-.544.091-1.858v-1.359l.024-.447-.024-.1,0-.2.491-.6c.265-.323.526-.641.791-.988.182-.535.262-1.017.406-1.535.062-.218.118-.435.173-.653a23.592,23.592,0,0,0,.55-2.761c.056-.426.088-.856.115-1.282a16.5,16.5,0,0,0,0-2.191c-.024-.356-.076-.709-.126-1.065a14.383,14.383,0,0,0-.529-2.323c-.088-.282-.2-.568-.306-.85-.159-.4-.247-.823-.441-1.217l-.223-2.447c-.97-5.129-.276-10.434,2.114-16.274-4.417-7.416-4.373-9.378.341-15.006.423-.5.823-1.035,1.223-1.561l.512-.7a2.067,2.067,0,0,0,.868-.385c.747-1.22,1.253-2.529-.135-3.8-1.041-.326-.968-1.135-.912-2.1a2.368,2.368,0,0,1-.729-1.515,2.281,2.281,0,0,0-.885-1.556,1.445,1.445,0,0,0-.25-.171l-.038-.029c.179.065.359.132.529.2a17.021,17.021,0,0,0,4.152,1.215,13.488,13.488,0,0,1,5.117,1.779c1.65,2.7,3.805,4.008,6.59,4.008a12.411,12.411,0,0,0,4.261-.859l.229-.259.412.012c5.026-1.6,5.455-2.4,4.155-7.808a5,5,0,0,0-2.344-.55,12.184,12.184,0,0,0-3.435.67l-.785.285c-.794-2.058.232-3.361,1.226-4.626.865-1.1,1.682-2.144,1.361-3.6a1.5,1.5,0,0,0-.879-1.867,4.519,4.519,0,0,0-4.358-2.144c-.35,0-1.77.05-2.12.05s-.7-.012-1.306-.065a7.155,7.155,0,0,0-1.144.132,7.5,7.5,0,0,1-1.2.138c-.8,0-1.626-.259-1.706-2.164a2.2,2.2,0,0,0-.1-.42,1.9,1.9,0,0,0-.1-.424,1.492,1.492,0,0,0-.382-.6,1.55,1.55,0,0,0-.323-.229c-.126-.071-.188-.191-.338-.238-1.609-.962-2.4-2.661-2.356-5.049a25.705,25.705,0,0,0-3.094-13.018c-1.95-3.682-3.549-5.675-6.414-5.675a12.984,12.984,0,0,0-4.59,1.1,2.577,2.577,0,0,1-.476.038,7.336,7.336,0,0,1-2.373-.574,7.482,7.482,0,0,0-2.42-.585,3.086,3.086,0,0,0-2.747,1.911c-1.879.947-2.788,2.7-2.773,5.373.015,2.485-1.168,3.567-3.947,3.623a2.25,2.25,0,0,0-1.685.991,4.957,4.957,0,0,1-2.061,2.4,2.264,2.264,0,0,0-.738,2.535,4.6,4.6,0,0,0,1.27,1.715,6.81,6.81,0,0,0,3.279,1.42,19.04,19.04,0,0,1,2.535.538l.926.238a18,18,0,0,0,3.917.391c.641,0,1.276-.027,1.914-.068.218-.012.432-.018.638-.018,2.961,0,4.564,1.317,5.923,4.855a37.54,37.54,0,0,1,1.514,5.622c.153.7.324,1.388.535,2.061.044.191.085.385.132.573-.244-.338-.5-.67-.762-1A9.615,9.615,0,0,1,328.3,436.5c-1.276-5.223-1.541-6.314-5.34-6.314-.867,0-1.923.059-3.273.126l-.473.1a3.559,3.559,0,0,0-1.729.656c-.947-.118-1.891-.221-2.9-.291-8.208-.518-8.208-.518-8.616-8.708l-3.743-.432c-3.249-1.109-4.149-3.814-5.023-6.434a14.35,14.35,0,0,0-1.967-4.3c-1.638-1.9-1.8-4.22-1.953-6.458a21.429,21.429,0,0,0-.441-3.158l-.026-.112a8.131,8.131,0,0,0-.332-1.276,5.155,5.155,0,0,0-.582-3.05,9.117,9.117,0,0,1-.547-1.579,3.292,3.292,0,0,0-3.261-2.373c-.706-.074-1.423-.088-2.138-.106a12.871,12.871,0,0,1-4.464-.629,14.381,14.381,0,0,0-3.852.459,6.083,6.083,0,0,1-1.7.226c-4.514,0-9.907-4.12-11.11-8.419l3.076-3.758a16.625,16.625,0,0,1,2.32-1.3c1.553-.771,3.094-1.6,3.738-2.991l.009-.023a3.019,3.019,0,0,0,.323-.962c.209-2.014-1.564-2.611-3.279-3.191a9.4,9.4,0,0,1-2.27-.982c-.479-.326-.709-.6-.7-.844.012-.3.406-.526.823-.77.462-.268.938-.544.917-.915l1.426-.406,1.782-.429c.329.015.656.023.973.023.912,0,1.9-.085,2.288-.717.341-.559.185-1.467-.482-2.782l-1.088-1.706a9.41,9.41,0,0,1-.009-1.5,4.472,4.472,0,0,0-1-3.688l-.135-1.4c-.794-3.879-3.964-4.505-7.122-5.134l-2.4-.641-2-.471c.162-.653.482-.947,1.041-.947a3.781,3.781,0,0,1,.794.118l.426.079a4.508,4.508,0,0,0,.668.053,2.833,2.833,0,0,0,1.723-.585,2.127,2.127,0,0,0,.271-.244c.126-.124.3-.2.394-.353a2.309,2.309,0,0,0,.141-.459c.032-.082.056-.165.079-.247a2.531,2.531,0,0,0,.065-1.017,2.29,2.29,0,0,0-.05-.247,2.421,2.421,0,0,0-.1-.512,17.537,17.537,0,0,1-1.238-4.208,17.047,17.047,0,0,0-1.194-4.085l-.144-.294c-.521-1.1-1.112-2.341-2.344-2.341a2.54,2.54,0,0,0-1.05.262c-1.456.676-2.823,1.711-1.917,4.285l.265.715c.544,1.429,1.132,2.994.45,4.405a3.119,3.119,0,0,1-.371.568c-.026.035-.044.071-.071.1a4.454,4.454,0,0,1-.806.691,1.41,1.41,0,0,0-.171-.744,2.794,2.794,0,0,0-.379-.024,3.323,3.323,0,0,0-.444.1l-.05.012a3.347,3.347,0,0,0-1.329.547c-.05.032-.1.068-.147.106a4.536,4.536,0,0,0-.544.385c-.121,0-.221.124-.3.379-.05.156-.015.306-.047.388a8.265,8.265,0,0,1-1.291,1.014,4.156,4.156,0,0,1-.473.235,1.176,1.176,0,0,0,.009-1.653,2.811,2.811,0,0,0,1.135-1.473c.076-.159.168-.3.235-.462a1.82,1.82,0,0,0,.047-.182,2.019,2.019,0,0,0,.891.244c.738,0,1.264-.579,1.611-1.791-.594-4.429-3.946-6.349-6.8-7.528a2.533,2.533,0,0,0-.838-.185l-1.062-1.938a3.44,3.44,0,0,0-3.211-2.008,5.189,5.189,0,0,0-1.47.226,5.74,5.74,0,0,1-1.6.279c-1.706,0-2.279-1.238-2.735-3.52a8.8,8.8,0,0,1-.123-1.1,3.834,3.834,0,0,0-.8-2.555,9.137,9.137,0,0,0-3.679-3.467l-.009,0a6.43,6.43,0,0,0-2.832-.7c-.235,0-.5.082-.747.1-.038.006-.082.015-.123.018a8.906,8.906,0,0,0-1.347.185,1.71,1.71,0,0,0-.535.341l-1.732-.832-1.826-.856c-.294.123-.585.256-.841.394a2.65,2.65,0,0,0-1.691.876,2.541,2.541,0,0,1-1.617.844,3.39,3.39,0,0,1-.594-.073,3.5,3.5,0,0,0-.185-.753l-1.173-.418-1.135-.338a4.619,4.619,0,0,0,.109-.568,47.957,47.957,0,0,0-.274-5.576c-.012-.1-.026-.206-.038-.306-.074-.579-.1-1.168-.221-1.75l-1.159-1.726-.726-.388a1.188,1.188,0,0,1,.088-.8,2.041,2.041,0,0,0-2.341-2.847h-.062a11.6,11.6,0,0,1-5.69,1.647c-3.082,0-6.128-1.538-9.313-4.7-.553-.547-1.156-1.041-1.759-1.538l-.806-.668A4.394,4.394,0,0,0,194.087,299c-1.482,0-2.5,1.456-3.479,2.864l-.571.817-.241,2.561a3.8,3.8,0,0,1-1.914.523,8.1,8.1,0,0,1-3.323-1.023l-.435-.188a4.861,4.861,0,0,0-.45-.6c-.115-.168-.232-.332-.359-.482a9.116,9.116,0,0,0-2.185-1.861,6.17,6.17,0,0,1-1.4-3.317,5.941,5.941,0,0,0-1.564-3.5l-2.1-4.623a4.919,4.919,0,0,0-2.4-2.208,5.192,5.192,0,0,1-2.453-2.223c-1.662-3.6-5.108-5.493-7.908-6.728l-20.57-15.962a4.965,4.965,0,0,0-1.347-.685l-.568.2a6.392,6.392,0,0,0-1.923-.359l-.576-.026c-1.838-2.841-4.058-5.62-7.781-6.687l-1.6-.85-1.953-2.217a6.362,6.362,0,0,0-2.447-2.585,6.617,6.617,0,0,1-2.32-2.338l-.168-2.947c.182-3.52-2.367-4.588-4.832-5.623l-.453-.188a4.305,4.305,0,0,0-.494-.153c-.332-.091-.706-.194-.762-.362l-.159-.473c-2.138-6.3-4.343-12.818-11.975-15.089-.373-.109-.618-.629-.876-1.182a4.321,4.321,0,0,0-.7-1.176l-.529-.57c-.9-.985-1.756-1.917-2.917-1.917a2.571,2.571,0,0,0-.523.141c-.044.009-.091.024-.138.035a4.5,4.5,0,0,0-1.9,1.15,3.184,3.184,0,0,1-2.27.817,9.761,9.761,0,0,1-3.726-.956,19.2,19.2,0,0,0-7.619-1.553,20.157,20.157,0,0,0-5.434.747,40.032,40.032,0,0,1-10.892,1.544l-.6,0L58.2,215.711c-3.47-4.617-7.384-7.466-11.986-8.713-.447,0-.909-.044-1.37-.085-.482-.044-.967-.088-1.432-.088a4.162,4.162,0,0,0-1.526.238,10.957,10.957,0,0,1-2.053.479c-1.982.335-4.029.685-4.479,3.523" transform="translate(-33.357 -199.987)" fill="#881d1f"/>
  <path id="Path_69" data-name="Path 69" d="M35.453,210.6c-.144.835-.2,1.688.765,2.135.4.556.024,1.082-.373,1.641a1.947,1.947,0,0,0-.553,1.391" transform="translate(-33.368 -192.653)" fill="#881d1f"/>
  <path id="Path_70" data-name="Path 70" d="M364.6,451.22c.165.259.312.535.456.809a8.232,8.232,0,0,0,.541.92,3.218,3.218,0,0,0,.641,1.782,2.091,2.091,0,0,0,1.229,2.511,1.446,1.446,0,0,0,.535.115c.647,0,.988-.574,1.32-1.12.094-.162.188-.32.262-.438l1.909-.82a12.635,12.635,0,0,1,1.47-1.444c1.359-1.2,2.764-2.429,2.391-4.755l-.062.009h0l.188-.353a3.7,3.7,0,0,0-.227-.629,2.983,2.983,0,0,0-.426-1.088,2.56,2.56,0,0,1-.435-1.238,1.363,1.363,0,0,1,.05-.279,1.144,1.144,0,0,1,.053-.232c.212,0,.435.018.659.035.259.018.524.035.773.035a1.829,1.829,0,0,0,1.376-.435,1.9,1.9,0,0,0,.356-1.479c-.044-.617-.024-1.368,0-2.141.05-1.7.106-3.452-.529-4.105-.167-.176-.376-.265-.9-.265h-.056c-1.926,0-2.055-.867-2.194-1.788a3.443,3.443,0,0,0-.3-1.12c-1.779-3.326-.2-6.052,1.553-8.546.847-.594.629-1.341.309-1.988a4.822,4.822,0,0,1,.291-3.335,10.455,10.455,0,0,0,.406-1.4,2.609,2.609,0,0,1,.229-2.038,1.085,1.085,0,0,1,.876-.338,4.384,4.384,0,0,1,1.114.194c1.814-.844,3.685-4.385,4.517-7.293.659-2.288.7-4.111.121-5a2.887,2.887,0,0,0-1.426-1.306,2.707,2.707,0,0,1-1.885-1.061c-.371-.644-.206-1.553.156-2.717a8.055,8.055,0,0,0-.544-6.658c-.447-.732-.609-1.282-.485-1.632a.618.618,0,0,1,.415-.368c2.064-.715,2.547-2.359,3.008-3.949a8.718,8.718,0,0,1,.935-2.341,20.131,20.131,0,0,1,4.587-2.529c2.688-1.194,5.467-2.426,6.94-5.437l3.082-3.006c1.629-2.394,4.114-2.788,6.511-3.173a16.694,16.694,0,0,0,3.444-.8l.235-.438c.341-.665.665-1.3,1.5-1.529.973-.812,1.744-1.588,1.315-2.935-1.447-2.661-1.391-4.723.185-6.687a3.2,3.2,0,0,0,.715-1.535c.006-.038,0-.073.006-.112a1.643,1.643,0,0,0,.026-.594,2.131,2.131,0,0,0-1.55-1.264c-2.138-.685-3.241-1.42-3.57-2.382-.326-.941.056-2.144,1.244-3.905.909-1.344,1.559-2.5,1-4.073-2.129-6.037.912-10.569,3.8-13.851a19.013,19.013,0,0,1,1.747-2.226,9.939,9.939,0,0,0,2.585-4.332,5.857,5.857,0,0,0,.159-1.294,8.093,8.093,0,0,1,1.553.35,6.911,6.911,0,0,0,1.808.359,1.649,1.649,0,0,0,1.2-.429,5.73,5.73,0,0,0,1.764-.43,48.865,48.865,0,0,0,6.54.365,34.1,34.1,0,0,1,9.349.97,9.151,9.151,0,0,0,2.564.412c2.247,0,3.97-1.129,5.273-3.452l2.026-2.908c.932-1.773,1.291-2.664.979-3.255-.338-.641-1.453-.868-3.944-1.129a21.486,21.486,0,0,0-1.5-1.982c-.168-.218-.324-.453-.5-.662a25.889,25.889,0,0,0-1.832-1.97c-.124-.121-.247-.238-.374-.356a61.111,61.111,0,0,0-8.316-6.3c-2.067-1.368-4.205-2.779-6.143-4.32a3.779,3.779,0,0,0-3.067-2.05l-1.1-.706c-2.373-1.168-3.37-3.426-4.329-5.611l-.238-.45a.532.532,0,0,0-.038-.823,11.866,11.866,0,0,1,2.364-3.438,9.876,9.876,0,0,0,2.661-4.432c1.1-1.6.232-2.711-.609-3.785-.173-.226-.347-.45-.523-.7-5.1-3.452-7.169-8.8-9.175-13.977-.7-1.8-1.4-3.611-2.223-5.343-.509-1.064-.406-1.485.562-2.25,2.885-2.279,1.935-5.208.782-7.519a2.3,2.3,0,0,0-.947-.759c.15-1.332,1.141-1.9,2.526-2.564a5.583,5.583,0,0,0,3.135-3.014,4.706,4.706,0,0,0-.474-3.694,1.651,1.651,0,0,0-1.267-.441l-.738.018a1.564,1.564,0,0,1-1.262-.471,1.306,1.306,0,0,1-.953-.512,1.79,1.79,0,0,1-.05-1.364,5.586,5.586,0,0,0,2.85-1.115,5.585,5.585,0,0,1,2.914-1.123,5.642,5.642,0,0,1,1.117.147c.115,0,.179-.1.274-.147a.508.508,0,0,0,.112-.059c.073-.05.182-.044.235-.124a1.773,1.773,0,0,0,.071-1.547l-.232-.606c-.582-1.55-1.191-3.129-2.761-3.873l-.041-.021a5.024,5.024,0,0,0-2.132-.421h-.015q-1.076.049-2.159.047c-1.191,0-2.385-.035-3.576-.071-.735-.021-1.47-.044-2.176-.044-.109,0-.221,0-.33,0a12.876,12.876,0,0,0-5.358-3.567l-.05-.018a11.8,11.8,0,0,0-3.782-.656,16.263,16.263,0,0,0-2.817.259,52.783,52.783,0,0,1-9.048.832,39.874,39.874,0,0,1-9.4-1.091,2.878,2.878,0,0,0-1.344-1.068l-.074-.024a1.672,1.672,0,0,0-.491-.153,2.272,2.272,0,0,0-1.2.394,17.633,17.633,0,0,0-1.991,1.035,8.086,8.086,0,0,1-3.767,1.429,4.487,4.487,0,0,1-3.426-1.991,1.5,1.5,0,0,0-1.217-.518,3.25,3.25,0,0,0-2.029.806c-.509.45-1.059.865-1.612,1.282-1.609,1.212-3.273,2.464-3.847,4.658a1.285,1.285,0,0,0-.159.626c-.224.873-.424,1.753-.624,2.632a40.982,40.982,0,0,1-2.109,7.184c-1,2.3-.841,4.64-.691,6.908a16.322,16.322,0,0,1-.285,5.649,4.407,4.407,0,0,0-.747,3.058l0,.629c-.085,3.555-1.57,5.284-4.538,5.284a9.972,9.972,0,0,1-1.45-.118,6.4,6.4,0,0,0-1.07-.094c-3.02,0-3.929,2.5-4.543,4.849a4.378,4.378,0,0,0,.023,1.738,3.012,3.012,0,0,1-.359,2.491,9.493,9.493,0,0,1-.447,1.038c-.591,1.241-1.2,2.523.415,3.808.6.476.885.879.873,1.226-.012.418-.468.732-.909,1.041a2.248,2.248,0,0,0-.862.826,5.961,5.961,0,0,0-3.035,2.761,6.611,6.611,0,0,0-3.982,3.432c-.7,1.685-.482,3.764.65,6.358a4.509,4.509,0,0,1,.191,2.617,10.094,10.094,0,0,0-3.949,6.217c-1.318.312-1.738,1.753-2.073,2.908-.253.865-.47,1.612-.97,1.612a.8.8,0,0,1-.329-.085,7.438,7.438,0,0,0-3.152-.679,16.88,16.88,0,0,0-4.508.835,16.134,16.134,0,0,1-4.314.811,6.831,6.831,0,0,1-2.111-.323c-.215-.021-.426-.026-.635-.026a6.522,6.522,0,0,0-5.349,2.655,5.165,5.165,0,0,1-4.173,1.964,15.862,15.862,0,0,1-3.158-.444,15.786,15.786,0,0,0-3.182-.453,3,3,0,0,0-.953.12c-.106-.25-.194-.506-.291-.809l-1.961-1.167-1.888.021a15.886,15.886,0,0,0-1.182-1.141c-.147-.144-.294-.3-.447-.432a13.684,13.684,0,0,0-4.5-2.717c-.209-.076-.426-.141-.641-.209a15.157,15.157,0,0,0-2.841-.579c-.229-.023-.456-.05-.685-.065-.4-.026-.771-.115-1.188-.115a21.566,21.566,0,0,0-2.576.162,25.667,25.667,0,0,1-3.058.147L268.765,298c-3.308,0-6.775.256-9.631,3.305-1.773.923-2.047,2.582-2.309,4.185a5.993,5.993,0,0,1-1.323,3.458.55.55,0,0,0-.426.153.317.317,0,0,0-.05.371,13.968,13.968,0,0,0-4.22,1.835,10.832,10.832,0,0,1-5.317,1.932,7.065,7.065,0,0,1-1.985-.306,3.224,3.224,0,0,1-.329.179,1.682,1.682,0,0,0-.682.48,6.711,6.711,0,0,1-.723.041,12.843,12.843,0,0,1-3.846-.806,12.827,12.827,0,0,0-3.885-.814c-.179,0-.362.009-.535.026l-1.894-.171a3.908,3.908,0,0,0-1.991-.52,9.862,9.862,0,0,0-2.4.412,9.562,9.562,0,0,1-2.373.409,4.967,4.967,0,0,1-.609-.038,12.971,12.971,0,0,0-6.049,2.75,5.234,5.234,0,0,1-3.467,1.45,6.2,6.2,0,0,1-3.447-1.214l-.309-.115a5.413,5.413,0,0,0-1.929-.479.678.678,0,0,0-.376.074c-1.332-3.038-4.043-4.664-6.664-6.237l-.776-.465-.962-.309c-.223-.32-.526-.565-.773-.859-.229-.274-.465-.541-.712-.794a23.185,23.185,0,0,0-3.529-2.938,3.036,3.036,0,0,0-1.944-1.947c-2.376-3.482-5.331-7.822-6.837-12.627a3.015,3.015,0,0,0,1.738-1.423,1.445,1.445,0,0,0-.062-1.138c-.165-.371-.382-.556-.647-.556-.4,0-.835.429-1.241.865l-1.012-.009c-2.891,0-5.89.238-8.013,3.094a4.643,4.643,0,0,0-.135.479c-.735,1.07-1.532,2.105-2.332,3.138-2.017,2.608-4.1,5.308-5.117,8.634-.321,1.57-.532,3.167-.744,4.764-.573,4.352-1.168,8.854-4.064,12.616a1.928,1.928,0,0,0-.838,1.3,2.194,2.194,0,0,0,.694,1.626,2.98,2.98,0,0,1,1.076,2.176,3.834,3.834,0,0,0,.638,1.767l.038.941a16,16,0,0,1-.127,2.685c-.244,2.367-.5,4.814,1.967,6.314,3.429,2.091,4.97,5,5.158,9.725l-.032.923c-3.864,2.273-4.537,5.143-2.253,9.587.459.9,1,1.773,1.553,2.656,1.747,2.814,3.555,5.725,2.673,9.434-.3.288-.42.518-.356.688s.3.265.721.282c2.035.106,4.226.394,5.029,1.729.57.944.415,2.32-.453,4.193-1.094,1.156-1.132,2.438-.106,4.043a4.527,4.527,0,0,0,3.449,1.859,6.289,6.289,0,0,0,4.155-2.041,5.8,5.8,0,0,1,3.941-1.876,6.33,6.33,0,0,1,3.255,1.068l3.088,6.814-2.079,5.773-.026-.053c-1.794,2.244-2.611,3.27-2.5,4.188.1.835.962,1.5,2.658,2.75l-.109.412c.268.1.544.185.823.271a4.689,4.689,0,0,1,2.041,1.015,2.373,2.373,0,0,1,.285.306,12.205,12.205,0,0,1,.276,4.726,11.078,11.078,0,0,0,.488,5.308,7.2,7.2,0,0,1,1.385,3.338,8.339,8.339,0,0,0,1.55,3.735l-.206,6.475a2.9,2.9,0,0,0-.626,1.682l0,.068a2.757,2.757,0,0,0-.021.662A4.536,4.536,0,0,0,204,428.162a2.47,2.47,0,0,0,.673.183c.062.015.126.041.191.053a2.534,2.534,0,0,0,.388.106,6,6,0,0,0,3.179-1.47,13.07,13.07,0,0,1,1.482-.953l2.876.162.256.447c.8,1.406,1.644,2.788,2.932,3.223.038.012.079.018.115.029a2.386,2.386,0,0,0,.67.165,4.922,4.922,0,0,0,2.626-.968,1.315,1.315,0,0,1,.7-.185,1.733,1.733,0,0,1,1.612,1.1,3.051,3.051,0,0,0,2.732,1.691,6.211,6.211,0,0,0,2.255-.515c.6-.382,1.2-.788,1.8-1.194,2.426-1.647,4.937-3.35,7.681-3.35a8.664,8.664,0,0,1,5.337,2.129,2.107,2.107,0,0,0,.735-.3l.415-.218.5,0,.4-.394a7.773,7.773,0,0,1,2.794-.718c.309,0,.6.035.85.038l.015,0a17.588,17.588,0,0,1-.465,2.147,9.09,9.09,0,0,0-.388,4.458,11.925,11.925,0,0,0,.538,2.053,7.438,7.438,0,0,1,.532,3.438,2.158,2.158,0,0,1-.359,2.079,2.566,2.566,0,0,0-.444,2.105,15.143,15.143,0,0,0,3.511.562,4.957,4.957,0,0,0,4.17-2.05c2.482-3.158,4.829-4.626,7.387-4.626a9.691,9.691,0,0,1,5.679,2.211,5.832,5.832,0,0,0,3.114,1.288c1.3,0,2.161-.929,2.535-2.714.788-.435,1.632-.809,2.47-1.182,3.111-1.376,6.325-2.8,6.59-7.54.021-.344.165-.382.276-.382a3.387,3.387,0,0,1,1.309.679,5.986,5.986,0,0,0,.941.562l.747.97a3.339,3.339,0,0,0,2.3,1.776,6.611,6.611,0,0,0,3.493,1.609c.471.109.938.223,1.388.371a2.051,2.051,0,0,0,.635.1,5.112,5.112,0,0,0,1.767-.453,5.131,5.131,0,0,1,1.75-.45,2.272,2.272,0,0,1,1.67.776l-.906,1.932c-.915,2.347.491,3.776,2.023,5.049a5.22,5.22,0,0,0,2.064.591,2.338,2.338,0,0,0,1.685-.732c2.408-2.053,4.643-3.005,7.031-3.005a9.616,9.616,0,0,1,1.982.212,5.786,5.786,0,0,0,3.252,1.256,16.814,16.814,0,0,1,2.288.5,6.1,6.1,0,0,1,4.291,2.285c2.408,2.608,1.832,5.89,1.323,8.781a10.934,10.934,0,0,0,1.779,8.716,3.443,3.443,0,0,0,2.279.938,4.613,4.613,0,0,0,2.555-.929c2.182-.756,4.355-1.538,6.528-2.323,2.229-.8,4.455-1.606,6.693-2.379l.523-.173c1.409-.471,2.741-.915,3.432-2.441a.893.893,0,0,0-.141-.135c-.041-.05-.079-.1-.118-.156a2.526,2.526,0,0,0,.991.265c.782,0,1.356-.568,1.756-1.744.085-.482.332-.72,1.009-.72h.018a3.405,3.405,0,0,1,1.985-.477c.288,0,1.467.053,1.759.053,1.329,0,2.635-.279,3.123-2.276a4.751,4.751,0,0,0,1.962.326l1.541-.032C362.588,448.392,364.108,448.609,364.6,451.22Zm9.178-1.876.059.023-.247.438-.1.138c-.3-.477-.3-.617-.279-.653l.062-.073.015,0v.047C373.4,449.268,373.6,449.332,373.777,449.344ZM196.121,390.666a3.889,3.889,0,0,0,.356.259c.026.029.062.056.085.082a.582.582,0,0,1-.412-.291Z" transform="translate(216.43 -176.797)" fill="#881d1f"/>
  <path id="Path_71" data-name="Path 71" d="M423.815,342.082a7,7,0,0,1-.809-.485,23.833,23.833,0,0,0-7.958-1.644,13.186,13.186,0,0,0-8.157,2.77,6.245,6.245,0,0,1-3.546,1.5,3.774,3.774,0,0,1-2.047-.632c-.106-.753-.632-.876-1.141-.994a2.759,2.759,0,0,1-.688-.22,6.486,6.486,0,0,1-1.394.144l-.641.035-1.606-.144a6.972,6.972,0,0,0-2.961.9,7.333,7.333,0,0,1-4.079.906,9.4,9.4,0,0,0-3.252.468,20.522,20.522,0,0,0-2.317.147,6.063,6.063,0,0,0-2.758-.594,57,57,0,0,0-9.722,1.25c-.788.174-1.638.3-2.505.427-3.25.482-6.611.979-7.993,4.058-2.65,5.9-7.525,8.046-12.686,10.316-1.106.491-2.214.976-3.293,1.5-9.016,2.873-15.909,6.464-21.691,11.292-1.817,1.517-3.694,3.088-3.873,5.549a27.575,27.575,0,0,1-1.85,7.2,34.216,34.216,0,0,0-1.144,3.738c-.038.132-.088.259-.121.391a.988.988,0,0,0-.027.162,2.987,2.987,0,0,0-.635-.073c-1.45,0-2.576,1.153-3.573,2.179l-.5.676c-.868,1.159-1.764,2.358-1.556,3.711.726,4.732-2.508,6.717-5.637,8.634l-.721.418a9.659,9.659,0,0,0-1.738,1.25c-.038.035-.074.079-.112.115a3.708,3.708,0,0,0-.594.62,6.266,6.266,0,0,0-3.1,1.744c-.023.021-.259.25-.238.277.4.635.118,1.629-.162,2.594-.3,1.029-.6,2.094-.088,2.779.05.068.168.091.229.15.023.02.059.032.082.053a3.161,3.161,0,0,0,2.014.535c.25,0,.523-.012.841-.041l1.226-.659a5.348,5.348,0,0,0,.638.259c.817-.141,1.673-.224,2.529-.3,3.576-.338,7.272-.688,8.31-5.681,2.332-1.8,2.179-4.243,2.032-6.614-.029-.5-.059-.994-.071-1.482a2.906,2.906,0,0,1,.471-2.023.971.971,0,0,1,.729-.274,5.234,5.234,0,0,1,1.867.562,36.69,36.69,0,0,0,5.6.523,13.1,13.1,0,0,0,8.607-2.676,11.849,11.849,0,0,1,7.931-2.835,19.8,19.8,0,0,1,2.394.156,6.562,6.562,0,0,0,1.038.088,3.319,3.319,0,0,0,2.044-.659l.041-.026a4.282,4.282,0,0,0,1.479-2.982c.138-.032.273-.059.453-.1l.947-1.065,1.188-1.179c.994-.491,2.023-1.009,1.894-2.253a2.294,2.294,0,0,0,1.75-1.741l.423-.553c.894-1.194,1.744-2.326,3.535-2.326a2.168,2.168,0,0,0,1.062-.7,6.677,6.677,0,0,0,1.685-3.329c.485-1.667.944-3.247,2.817-3.887a40.072,40.072,0,0,0,6.29-3.026c2.967-1.647,6.037-3.352,9.607-3.8a2.6,2.6,0,0,1,1.335-.309,9.533,9.533,0,0,1,1,.071c.338.032.676.068,1.012.068a2.539,2.539,0,0,0,1.829-.635c.35-.215.718-.412,1.079-.609a13,13,0,0,0,2.252-1.435c2.244-1.929,5.2-2.488,8.066-3.029,3.935-.747,8-1.514,10.31-5.82a1.138,1.138,0,0,1,.832-.326c3.22-.1,5.99-1.517,8.666-2.888a42.221,42.221,0,0,1,3.926-1.844,5.9,5.9,0,0,0,1.009-.4c.038-.018.079-.029.118-.047a10.951,10.951,0,0,0,4.276-4.129c.279-.406.562-.809.873-1.241C425.65,343.064,424.721,342.567,423.815,342.082Z" transform="translate(473.845 58.377)" fill="#881d1f"/>
  <path id="Path_72" data-name="Path 72" d="M371.767,354.378a11.94,11.94,0,0,1,4.235.776,2.188,2.188,0,0,0,.679-.2,1.88,1.88,0,0,0,1.317.535,2.95,2.95,0,0,0,.509-.129l.079-.018a3.029,3.029,0,0,0,.688-.173c.447-.156.5-.415.415-.532,4.529-1.409,7.964-4.558,11.381-7.734a.824.824,0,0,0,.215.035.3.3,0,0,0,.147-.053l.044.006a4.3,4.3,0,0,0-.7,3.561c.385,1.141,1.494,2.088,3.285,2.8a6,6,0,0,0,4.085,1.92,4.749,4.749,0,0,0,.485-.1c.118-.015.235-.05.356-.074a4.889,4.889,0,0,0,1.485-.562c.085-.05.171-.106.256-.162a6.176,6.176,0,0,0,.815-.518,6.568,6.568,0,0,1,4.3-1.309,12.543,12.543,0,0,0,2.106-.229c1.956-1.438,4.138-1.559,6.208-1.559l1.738.015a18.436,18.436,0,0,0,4.117-.391,3.766,3.766,0,0,0,3.141-1.873c1.664,0,2.935-.173,3.729-1,.694-.718.982-1.855.92-3.594-.112-3.064-1.338-3.679-3.288-3.679-.3,0-1.585.053-1.929.053-2.07,0-4.138.044-6.2.091l-5.52.1-.612-.012c-.809,0-1.617.05-2.426.1s-1.609.1-2.414.1a12.37,12.37,0,0,1-3.458-.438l-2.076,1.953a5.075,5.075,0,0,1-3.576,2.035c-1.373,0-2.706-.924-4.076-2.829a2.7,2.7,0,0,0-2.194-1.356,3.208,3.208,0,0,0-1.988.829,8.751,8.751,0,0,1-5.873,1.87c-.853,0-1.711-.062-2.573-.124s-1.729-.121-2.585-.121l-.6.012-.9-.259a2.033,2.033,0,0,0-1.429-.629,3.735,3.735,0,0,0-1.838.67,5.1,5.1,0,0,1-2.458.926c-1.382,0-1.67-1.479-1.973-3.038a14.588,14.588,0,0,0-.329-1.426,2.79,2.79,0,0,0-2.108-1.126,3.19,3.19,0,0,0-1.8.647c-1.829.135-2.976.62-3.505,1.476-.835,1.341-.024,3.358.838,5.493l.141.176.035.088a17.1,17.1,0,0,0-2.264-.179,6.521,6.521,0,0,0-2.444.462c-.079.03-.153.074-.229.106a4.38,4.38,0,0,0-1.441,1.044c-.044.05-.091.094-.135.15a6.2,6.2,0,0,0-1.209,2.217c-.82,2.641-2.25,3.979-4.255,3.979a8.235,8.235,0,0,1-4.058-1.362,1.15,1.15,0,0,0-1.106-.629,4.362,4.362,0,0,0-.512.038c-.168.018-.332.038-.447.056a9.578,9.578,0,0,1-.85-1.15c-.718-1.07-1.459-2.176-3.046-2.176a4.159,4.159,0,0,0-.9.1c-1.491.32-2.993.756-4.493,1.191a32.055,32.055,0,0,1-8.74,1.7,12.411,12.411,0,0,1-8.657-3.447,2,2,0,0,0-1.276-.268c-.135,0-.541,0-.6,0-1.294-1.92-3.208-1.97-5.055-2.014a7.086,7.086,0,0,1-3.84-.806c-.194-.579-.659-.679-1.109-.77a1.57,1.57,0,0,1-.868-.374l-2.832-.212a5.472,5.472,0,0,0-3.479-1.3,11.334,11.334,0,0,0-4.311,1.206,14.216,14.216,0,0,1-3.638,1.188.538.538,0,0,0-.367-.229.439.439,0,0,0-.356.259,28.519,28.519,0,0,1-3.59,2.147c-3.108,1.659-6.323,3.373-7.161,7.581a1.7,1.7,0,0,1-1.082.482,2.524,2.524,0,0,1-1.517-.832,2.617,2.617,0,0,0-1.6-.859.453.453,0,0,0-.385.141h-.006c-.235-2.511-2.014-3.917-3.738-5.279l-.438-.3-2.106.909a6,6,0,0,0-1.453,3.738,10.935,10.935,0,0,1-.418,2.026c-.1.171-.224.262-.6.262l-.1,0a3.548,3.548,0,0,0,.077,5.02,5.239,5.239,0,0,0,2.87,1.073c1.347,0,2.305-.873,3.161-2.059.215-.273.426-.556.632-.847a5.477,5.477,0,0,0,2.461,3.42,10.509,10.509,0,0,0,1.285.788c.035,0,.065-.006.1,0,.05.024.082.05.132.074a3.8,3.8,0,0,0,.509-.1c.126-.015.241-.047.359-.07a2.813,2.813,0,0,0,.909-.359,2.771,2.771,0,0,0,.765-.668,3.86,3.86,0,0,0,1.4,1.323,5.338,5.338,0,0,0,1.5.476c1.859.173,3.682.2,5.064.2l4.785-.035c.659,0,1.315.006,1.991.021a12.52,12.52,0,0,1,3.049-.341c1.035,0,2.067.088,3.1.173s2.073.179,3.108.179a11.933,11.933,0,0,0,2.829-.312l-.206.294a2.983,2.983,0,0,0,3.005,1.773c.438,0,.885-.041,1.335-.085l.87-.079a2.166,2.166,0,0,1,1.073-.388,1.006,1.006,0,0,1,.488.144,2.117,2.117,0,0,1,.562,1.459,2.993,2.993,0,0,0,1.7.573,2.6,2.6,0,0,0,.641-.082l2.532-.676c4-1.088,8.146-2.208,12.342-2.208a21.947,21.947,0,0,1,5.47.679,2.111,2.111,0,0,0,.832-.335,23.74,23.74,0,0,1,6.167-1.815,21.031,21.031,0,0,0,2.15-.491,15.008,15.008,0,0,1,4.593-.468,23.582,23.582,0,0,0,2.773-.112,9.51,9.51,0,0,0,2.4-.718,8.728,8.728,0,0,1,2.285-.682,28.25,28.25,0,0,0,7.514-2.252C365.795,355.555,368.7,354.378,371.767,354.378Z" transform="translate(409.297 53.682)" fill="#881d1f"/>
  <path id="Path_73" data-name="Path 73" d="M426.334,384.988c-3.429-4.176-6.99-7.943-12.857-8.16a.707.707,0,0,1-.329.085.692.692,0,0,1-.462-.191,1.831,1.831,0,0,0-1.132-.453c-.112,0-.223.091-.338.118a1.082,1.082,0,0,0-.156.053,1.677,1.677,0,0,0-.465.159l-1.041.747c-.7.5-1.409,1.012-2.138,1.479a10.789,10.789,0,0,1-5.743,1.529c-3.42,0-6.552-1.288-8.19-3.27l-.059-.077a5.777,5.777,0,0,1-.568-.841,13.562,13.562,0,0,1,.044-1.979c.132-1.926.273-3.92-2.035-5.246l-2.814.044a11.112,11.112,0,0,1-2.682-1.07,8.242,8.242,0,0,0-3.717-1.188,1.142,1.142,0,0,0-.359.038l-.867-.935a4.161,4.161,0,0,0-2.406-.82,7.354,7.354,0,0,0-4.043,1.753l-7.9.347c-.271,0-.547-.029-.823-.056a7.982,7.982,0,0,0-.835-.059,1.945,1.945,0,0,0-1.838.994,1.364,1.364,0,0,1-.585.1h-.112a22.669,22.669,0,0,1-11.14-3.94c-2.391-1.553-3.549-2.991-3.543-4.4a4.282,4.282,0,0,1,1.382-2.726,12.735,12.735,0,0,1,2.126-1.685c-.012-.077-.029-.147-.044-.218l.012-.012,1.359.073a17.712,17.712,0,0,1,1.382,1.538,8.12,8.12,0,0,0,5.046,1.709A17.663,17.663,0,0,0,364.4,357.1l1.594-1.05c1.259-.3,1.541-1.247,1.706-2.441.021-.121.044-.238.068-.359a.538.538,0,0,0,0-.068l2.564.088,1.653-.694a4.935,4.935,0,0,0,.509-.215,18.212,18.212,0,0,1,6.3-1.267c.432,0,.868.021,1.335.062,2.05-.826,3.132-1.758,3.3-2.846.165-1.032-.532-2.209-2.064-3.491a2.059,2.059,0,0,0-1.47-.438l-.723.012a1.681,1.681,0,0,1-1.744-.888,1.949,1.949,0,0,0-1.338-.656,2.9,2.9,0,0,0-1.909,1.173,35.608,35.608,0,0,1-8,.709l-4.152-.026c-1.25,0-2.5.023-3.743.109-.915.065-1.835.079-2.753.079l-2.805-.018a20.534,20.534,0,0,0-8.146,1.267l-1.091,1.059a7.494,7.494,0,0,1-3.214,1.159,2.491,2.491,0,0,1-2.106-1.206,4.965,4.965,0,0,0-4.423-2.252,18.9,18.9,0,0,0-2.45.218,4.747,4.747,0,0,0-2.02-.338c-.021,0-4.141-.638-4.141-.638-1.562-2.676-3.9-2.9-6.167-2.9l-1.691.012a16.582,16.582,0,0,1-1.694-.071A16.118,16.118,0,0,1,313.6,339.6c-1.344-1.176-2.735-2.4-4.482-2.4a5.146,5.146,0,0,0-2.976,1.094l-1.873.056a3.673,3.673,0,0,1-1.512.373c-1.591,0-2.4-1.491-3.035-2.891a6.943,6.943,0,0,0-5.246-4.349l-5.89-.047c-5.04.541-5.664,4.088-6.27,7.514-.159.909-.321,1.82-.559,2.676-1.067,3.485-2.126,4.608-4.376,4.608a17.337,17.337,0,0,1-4.52-.865,12.523,12.523,0,0,0-3.17-.5,6.174,6.174,0,0,0-1.809.253l.018.062-.25-.165-.159.135-.065-.006c-.685-.082-1.406-.206-2.135-.332-.921-.153-1.859-.315-2.758-.4l-.847-.2a26.013,26.013,0,0,0-5.967-.941,11.645,11.645,0,0,0-1.564.1l-1.009-.015a5.208,5.208,0,0,0-1.514-.215,12.9,12.9,0,0,0-3.552.7,12.749,12.749,0,0,1-3.517.694,5.1,5.1,0,0,1-3.211-1.124l-.9-.12c-.668-.085-1.335-.171-2-.285-.7-.123-1.4-.217-2.094-.315-4.426-.612-8.607-1.188-9.5-8.025-.415-3.164-3.917-7.949-8.252-7.949a5.765,5.765,0,0,0-1.229.132,19.882,19.882,0,0,1-4.235.456,38.856,38.856,0,0,1-10.087-1.767c-1.3-.35-2.611-.7-3.908-.985-.57-.565-1.094-1.191-1.62-1.814-1.347-1.6-2.776-3.188-4.92-3.779-.109-.029-.232-.044-.347-.068a5.725,5.725,0,0,0-1.12-.218,17.112,17.112,0,0,1-2.311-.744,10.564,10.564,0,0,0-3.367-.865c-1.838,0-2.9,1.406-3.311,4.37a5.991,5.991,0,0,1-3.267.962,9.757,9.757,0,0,1-2.558-.435c-.291-.1-.579-.174-.87-.3l-.044-.085c-.826-.244-1.647-.512-2.47-.782a27.692,27.692,0,0,0-8.531-1.823,12.885,12.885,0,0,0-2.994.338,1.882,1.882,0,0,1-.891.25c-.5,0-.962-.247-1.676-.985l-.382-1.488a5.979,5.979,0,0,1-.685-.168,3.775,3.775,0,0,0-1.035-.2,1.841,1.841,0,0,0-1.359.7l-.706.023c-4.058,2.5-5.284,6.625-5.99,10.681-.344.444-.065.982.321,1.7a5.826,5.826,0,0,0-.188,1.412,3.519,3.519,0,0,1-.6.27A6.367,6.367,0,0,0,145.88,331a3.429,3.429,0,0,0-1.856.579l-.088.062a5.784,5.784,0,0,0-2.179,3.517,36.926,36.926,0,0,0-1.179,5.787v1.088a.656.656,0,0,1-.371.132c-.456,0-.829-.664-1.191-1.309-.376-.676-.768-1.373-1.482-1.373l-.588.015c-.456,0-.9-.038-1.091-.323s-.112-.832.241-1.664a2.188,2.188,0,0,0-.232-2.135,3.346,3.346,0,0,0-2.273-1.482c-1.341,0-2.223,1.088-3.079,2.147a11.18,11.18,0,0,1-1.265,1.4c-1.2,1.041-.665,1.691-.1,2.376a4.988,4.988,0,0,1,.541.75c2.129,3.926,5.526,5.755,10.684,5.755.5,0,1.015-.018,1.535-.05.706-.026,1.411-.044,2.12-.059,1.532-.035,3.117-.071,4.658-.253a18.591,18.591,0,0,1,2.12-.124c3.494,0,7.1,1,11.342,3.126,1.591.8,3.17,1.7,3.444,3.079.182.9-.215,1.9-1.209,3.058-1.441,1.673-.126,2.914.832,3.82a10.863,10.863,0,0,0,7.769,3.364l24,2.782L198,366a21.482,21.482,0,0,1,2.147,1.417,18.3,18.3,0,0,0,2.132,1.335,8.344,8.344,0,0,0,1.594.706l.053-.015a1.85,1.85,0,0,0,.256.529l.006.012a1.1,1.1,0,0,0,.476.473.945.945,0,0,0,.171.071c.091.023.15.1.253.1a4.883,4.883,0,0,0,1.8-.606,3.3,3.3,0,0,1,.885-.117,6.972,6.972,0,0,1,2.367.565,9.175,9.175,0,0,0,1.614.476l1.006,1.029a15.15,15.15,0,0,1,3.141,1.409,10.193,10.193,0,0,0,4.7,1.635,5.566,5.566,0,0,0,3.076-.979c.153-.423.279-.861.45-1.5L227.555,370a7.146,7.146,0,0,1,.9-.05l1.456.029a5.176,5.176,0,0,0,1.547-.188,5.5,5.5,0,0,0,1.109.326,12.527,12.527,0,0,0,1.623.115,8.915,8.915,0,0,0,2.011-.221c.3-.117.606-.209.859-.3l.341.256a23.649,23.649,0,0,1,4.161-.35,53.141,53.141,0,0,1,11.81,1.791,72.361,72.361,0,0,0,8.593,1.608,71.841,71.841,0,0,1,6.961,3.526,46.414,46.414,0,0,0,10.831,4.776c.159.041.324.062.482.1a20.906,20.906,0,0,0,2.355.482,2.6,2.6,0,0,0,2.479,1.556,4.336,4.336,0,0,0,.688-.059l.412-.112a8.237,8.237,0,0,0,5.725,2.205,11.235,11.235,0,0,0,1.57-.109,29.082,29.082,0,0,1,3.888-.309,13.757,13.757,0,0,1,4.223.6l1.441.2a5.407,5.407,0,0,0,3.382.906c1.511.07,2.941.132,3.935,1.57a2.243,2.243,0,0,0,1.376.959l.035.012a1.887,1.887,0,0,0,.382.1,4.579,4.579,0,0,0,2.117-.747,3.2,3.2,0,0,1,3.32-2.235c.473,0,.965.053,1.453.1s.988.094,1.467.094a5.066,5.066,0,0,0,.57-.029l2.961.124c.979.209,1.938.515,2.9.82a17.019,17.019,0,0,0,5.19,1.085c.262,0,.526-.015.776-.038l4.893,1.061a9,9,0,0,0,.815.4c.2.112.406.212.615.3a7.936,7.936,0,0,0,1.462.476,7.587,7.587,0,0,0,1.038.15c.247.02.459.1.715.1h.041a6.973,6.973,0,0,0,.77-.37,6.958,6.958,0,0,0,1.573.185c2.12,0,4.046-.991,6.093-1.926a.959.959,0,0,0,.632-.194,10.623,10.623,0,0,0,1.147.062,11.086,11.086,0,0,0,1.559-.109,9.188,9.188,0,0,0,1.314-.291,10.408,10.408,0,0,1,2.888-.521,4.967,4.967,0,0,1,1.956.382l1.047.65.565.471a22.7,22.7,0,0,0,2.814,2.032c.1.059.2.112.3.168a9.553,9.553,0,0,0,1.1.615,5.6,5.6,0,0,0,1.294.274c.138-.018.271-.026.423-.044l.371.388,1.288.382a4.822,4.822,0,0,1,.735,1.091,8.774,8.774,0,0,0,3.358,1.906c.362.135.723.274,1.076.426a20.018,20.018,0,0,0,7.5,1.259l.868-.009a7.005,7.005,0,0,1,4.455,1.217,7.591,7.591,0,0,0,4.787,1.635c.209,0,.45-.076.665-.091l.085-.012a10.358,10.358,0,0,0,1.905-.259,3.218,3.218,0,0,0,1.273-.859,4.508,4.508,0,0,0-.388-4.958,6.15,6.15,0,0,0-1-1.038,12.891,12.891,0,0,0-3.6-1.917c-.259-.085-.515-.176-.735-.244l-.991-2.008-.059.029.338-.2a1.957,1.957,0,0,1,1.394-.732,2.611,2.611,0,0,1,1.8,1.07,6.256,6.256,0,0,0,4.238,2.229c3.72.3,6.949,1.961,9.9,3.723a2.368,2.368,0,0,0,.6.168,6.343,6.343,0,0,1,.247,1.467,5.386,5.386,0,0,0-1.747,2.829c.75,2.544,2.235,2.867,3.444,2.867a13.532,13.532,0,0,0,2.041-.22,16.978,16.978,0,0,1,1.712-.215c1.788-.676,2.12-2.247,2.438-3.764l.1-.47c.365-.726.676-1.1.926-1.1s.471.394.676.776a2.129,2.129,0,0,0,.556.779,2.022,2.022,0,0,0,.371.238,3.471,3.471,0,0,0,3.5,2.526l.368-.015c1.585-.126,1.779-1.429,1.967-2.685a11.554,11.554,0,0,1,.221-1.2l-.2-.456c-.294-.715-.6-1.459-1.491-1.459h0c-.653-1.523.288-2,1.285-2.5a5.93,5.93,0,0,0,.97-.576l.447-.353c1.723-1.353,3.505-2.753,1.917-5.505ZM175.884,322.324a.927.927,0,0,1,.018.115c-.106-.165-.212-.332-.323-.532A1.548,1.548,0,0,1,175.884,322.324Z" transform="translate(147.605 13.304)" fill="#881d1f"/>
  <path id="Path_74" data-name="Path 74" d="M427.907,336.228c-1.3-.629-1.294-2.55-1.294-4.367a33.627,33.627,0,0,0-1.312-9.978,6.07,6.07,0,0,1-.344-3.244,5.347,5.347,0,0,0-.7-3.855c-1.758-1.564-3.164-2.611-4.308-2.611a1.7,1.7,0,0,0-.356.106l-.032.009c-1.2.273-2.129,1.726-3.241,4.176a6.138,6.138,0,0,1-4.767,3.644,2.56,2.56,0,0,0-2.217,2.061,1.919,1.919,0,0,0,.915,1.994c1.188.641,1.791,1.279,1.8,1.894.006.888-1.2,1.567-2.164,2.108-4.164,2.423-5.173,5.314-3.6,10.3a9.1,9.1,0,0,1-3.3,9.931c-.973,3.549-.7,4.061,3.661,6.808a6.382,6.382,0,0,1,1.112.485,4.176,4.176,0,0,0,1.853.6,2.275,2.275,0,0,0,.976-.226l2.529-1.458a3.08,3.08,0,0,0,.562-.323c3.305-1.776,4.935-4.964,6.52-8.1l.576-.265a3.9,3.9,0,0,0,.65-.385c.088-.044.183-.079.268-.127a5.1,5.1,0,0,0,.044.782c.076.682.144,1.326-.474,1.788a3.635,3.635,0,0,0-1.214,2.952,2.139,2.139,0,0,0,1.247,1.556,2.745,2.745,0,0,0,1.229.341c1.153,0,1.753-1.079,2.332-2.12a8.086,8.086,0,0,1,.838-1.32,2.051,2.051,0,0,0,.947-1.456,2.394,2.394,0,0,0-.971-1.779.594.594,0,0,1-.4-.629c-.409-1.056-.888-1.6-1.473-1.6l-.015,0a.469.469,0,0,0-.059-.017,2.157,2.157,0,0,1,1.473-.462c.221,0,1.129.059,1.359.059a2.288,2.288,0,0,0,1.623-.538c.212-.279.432-.553.656-.826.973-1.2,1.888-2.335,1.626-3.511C430.268,337.754,429.433,336.972,427.907,336.228Z" transform="translate(679.355 4.464)" fill="#881d1f"/>
  <path id="Path_75" data-name="Path 75" d="M218.8,301c.018.012.035.021.027.029l-.009-.015Z" transform="translate(322.801 -17.212)" fill="#881d1f"/>
  <path id="Path_76" data-name="Path 76" d="M409.505,332.115c-.318-1.329-1.7-2.3-3.267-3.138a8.764,8.764,0,0,0-4.093-.965c-.318,0-.618.085-.929.115-.094.009-.185.023-.276.035a10.065,10.065,0,0,0-4.517,1.673c-.112.076-.221.15-.329.232a8.279,8.279,0,0,0-1.109.982c-.044.047-.079.1-.121.153a7.167,7.167,0,0,0-.95,1.2c-2.179,3.891-4.879,5.7-8.5,5.7a12.2,12.2,0,0,1-1.323-.076,6.294,6.294,0,0,0-.747-.041,10.61,10.61,0,0,0-2.185.256,2.033,2.033,0,0,0-1.782,2.544,1.652,1.652,0,0,0,1.709,1.488,2.6,2.6,0,0,0,.55-.059,7.873,7.873,0,0,1,1.579-.2,1.427,1.427,0,0,1,1.25.444c.382.553,0,1.57-.335,2.473a9.658,9.658,0,0,0-.359,1.082,8.781,8.781,0,0,1-1.373,2.644c-1.262,1.879-2.561,3.82-.012,6.725-.053.468-.985,1.094-1.429,1.394l-4.44,2.985c-.365.241-.741.473-1.12.706-1.894,1.153-3.849,2.344-3.567,5.311a3.318,3.318,0,0,0,1.238.247,5.614,5.614,0,0,0,2.882-1.115,5.854,5.854,0,0,1,2.6-1.091c3.47-.023,7.243-.644,8.913-5.084a3.016,3.016,0,0,1,1.408-1.106c.7-.356,1.429-.724,1.647-1.629l4.108-6.846c4.061-3.6,7.261-7.046,5.214-12.783a.856.856,0,0,1,0-.729c.2-.353.759-.47,1.456-.6a8.009,8.009,0,0,0,1.229-.132,7.272,7.272,0,0,1,1.206-.129,2.732,2.732,0,0,1,1.6.488c1.832-.1,4.108-.232,4.305-2.4a2.094,2.094,0,0,0-.088-.527A1.882,1.882,0,0,0,409.505,332.115Z" transform="translate(619.731 35.205)" fill="#881d1f"/>
  <path id="Path_77" data-name="Path 77" d="M310.445,356.131a5.1,5.1,0,0,0-.247-1.564,4.359,4.359,0,0,0-2.65-2.423l-1.215-.888a16.586,16.586,0,0,1,.779-5.628,3.1,3.1,0,0,1,.953-1.094c.818-.7,1.665-1.429.43-3.079a1.069,1.069,0,0,0-1.079-.762l-.438-.012c-1.832,0-3.308.985-4.732,1.941a12.357,12.357,0,0,1-3.114,1.682c-.491.05-.994.126-1.7.244l-.321-.056a.749.749,0,0,0-.568.238l-4.032-.888a3.689,3.689,0,0,0-2.494-1.291c-1.135,0-2.061.882-2.955,1.732a11.978,11.978,0,0,1-1.447,1.244c-3.167-.647-3.791-3.026-4.449-5.543-.112-.429-.224-.862-.391-1.323-.623-.223-1.176-.335-1.762-.5l-.068-.018a18.9,18.9,0,0,0-3.261-.623c-.1-.009-.206-.024-.309-.033-.353-.026-.735-.112-1.076-.112a11.871,11.871,0,0,0-7.314,2.453,3.568,3.568,0,0,1-2.285.623c-.412,0-.823-.026-1.223-.053-.368-.027-.72-.047-1.041-.047-.732,0-1.494.109-1.582.938-.488,4.461-1.9,5.214-4.876,5.214-.741,0-1.576-.05-2.52-.1l-.518-.021c-2.82,0-7.631,2.72-10.725,6.067-1.982,1.923-2.317,4.408-2.641,6.811a17.26,17.26,0,0,1-.979,4.358c-.029,1.385.273,3.8,2.6,4.391.864.221,1.723.465,2.582.709a29.541,29.541,0,0,0,8.125,1.514c.37,0,.712-.088,1.07-.115.232-.015.468-.047.7-.073.474-.056.965-.05,1.432-.153,2.235-.488,4.432-1.1,6.634-1.711a75.605,75.605,0,0,1,10.969-2.467c.623-.618,1.253-1.217,1.861-1.808a16.54,16.54,0,0,1,2.961-.512,9.533,9.533,0,0,0,4.764-1.438,5.359,5.359,0,0,0,.588-.521c.109-.112.238-.179.341-.306.224.171.45.335.688.491.294.232.588.473.885.72,1.209,1.006,2.453,2.041,4.017,2.041a3.817,3.817,0,0,0,1.209-.2,32.858,32.858,0,0,1,7.519-1.22c1.532-.126,3.067-.253,4.585-.515C305.743,361.818,309.84,361.118,310.445,356.131Z" transform="translate(361.213 53.374)" fill="#881d1f"/>
  <path id="Path_78" data-name="Path 78" d="M353.532,335.767l-.673-.394c-1.367-1.9-2.917-2.82-4.746-2.82a10.344,10.344,0,0,0-5.146,1.794,12.294,12.294,0,0,1-6.193,2.1,7.415,7.415,0,0,1-4.955-1.982h0c-.021,0-.1.094-.118.1a.661.661,0,0,0-.109.141,10.41,10.41,0,0,1-4.038,4.352c-2.111,1.115-3.2,3.676-2.894,6.858.138,1.432.618,2.132,1.47,2.132a3.2,3.2,0,0,0,1.491-.494c3.635-2.053,7.481-2.338,11.089-2.338,1.053,0,2.112.029,3.164.056l2.288.041a2.766,2.766,0,0,0,1.373.406,3.554,3.554,0,0,0,2.523-1.582,6.013,6.013,0,0,1,5.023-2.946l1.7-1.062a3.374,3.374,0,0,0,.832-1.723l.015-.1a2.009,2.009,0,0,0,.059-.447C355.52,336.92,354.508,336.338,353.532,335.767Z" transform="translate(528.14 44.015)" fill="#881d1f"/>
  <path id="Path_79" data-name="Path 79" d="M155.573,306.133a1.162,1.162,0,0,0,1,.524,6.3,6.3,0,0,0,2.9-1.423l.421-.288a2.682,2.682,0,0,0,1.444-.606,2.548,2.548,0,0,1,1.373-.585,1.745,1.745,0,0,1,.709.165c.594,2.6,1.741,3.143,2.6,3.143a4.128,4.128,0,0,0,2.908-1.808,22.9,22.9,0,0,0,5.423-12.413,2.565,2.565,0,0,0-.215-.962l-1.6-1.076-.37-.276-.347-.2c0-.015.076-.341.071-.353a2.8,2.8,0,0,0-2.3-2.156l-3.782-2.064a19.091,19.091,0,0,0-5.314-.8,15.411,15.411,0,0,0-4.97.815,18.564,18.564,0,0,0-1.726,6.581,19.435,19.435,0,0,1-1.735,6.693c-.9,1.7.771,3.7,2.244,5.478C154.77,305.08,155.22,305.621,155.573,306.133Z" transform="translate(192.791 -48.354)" fill="#881d1f"/>
  <path id="Path_80" data-name="Path 80" d="M129.951,258.935a3.68,3.68,0,0,0-1.55-.518,1.433,1.433,0,0,0-.923.338,1.783,1.783,0,0,0-.65,1.315,1.866,1.866,0,0,0,.482,1.382c1.635,1.623.688,2.717-.429,4.005a8.178,8.178,0,0,0-1.67,5.023c-.485,1.088.082,1.829.682,2.617a6.32,6.32,0,0,1,.959,1.579c.015.056.038.106.05.165a7.646,7.646,0,0,0-1.229-.106,5.437,5.437,0,0,0-1.05.179c-.132.024-.271.035-.4.068a5,5,0,0,0-.876.318,4.149,4.149,0,0,0-.609.379,4.555,4.555,0,0,0-.917.832c-.112.138-.212.282-.309.429a5.78,5.78,0,0,0-.679,1.429c-.041.127-.079.253-.112.385a6.456,6.456,0,0,0-.25.867c-.229,1.661,1.041,1.873,2.267,2.079a3.423,3.423,0,0,1,2.22.9,1.038,1.038,0,0,0,.447.265,7.784,7.784,0,0,1,1.167.691,3.99,3.99,0,0,0,2.091.909,2.257,2.257,0,0,0,1.582-.756l.462-.444c1.423-1.356,2.9-2.758,1.844-5.452-.485-1.235-.535-2.147-.15-2.711a2.09,2.09,0,0,1,1.838-.7,8.6,8.6,0,0,1,1.9.253,9.7,9.7,0,0,1,2.114.873,7.022,7.022,0,0,0,3.141,1,2.182,2.182,0,0,0,.773-.124c.144-1.7.2-3.467-.77-4.608a2.969,2.969,0,0,0-.6-.429c-.065-.044-.121-.1-.191-.138a4.632,4.632,0,0,0-2.123-.662c-2.058-.509-2.323-2.135-2.638-4.073A9.774,9.774,0,0,0,129.951,258.935Z" transform="translate(131.924 -99.86)" fill="#881d1f"/>
  <path id="Path_81" data-name="Path 81" d="M350.712,256.5h.018c7.808-.074,12.357-4.82,12.489-13.024a10.375,10.375,0,0,0-2.576-6.928,3.232,3.232,0,0,0-2.205-1.126,1.967,1.967,0,0,0-.729.144,17.121,17.121,0,0,0-9.172,9.757,12.234,12.234,0,0,0,.644,10.145A1.635,1.635,0,0,0,350.712,256.5Z" transform="translate(573.017 -144.489)" fill="#881d1f"/>
  <path id="Path_82" data-name="Path 82" d="M342.32,279.329a1.255,1.255,0,0,0-1.388.785,5.411,5.411,0,0,0-.012,6.281l.262,1.467c.759,1.456,1.567,2.885,2.832,3.258.038.009.076.021.118.029a1.939,1.939,0,0,0,.473.129,4.234,4.234,0,0,0,2.414-.988,9.091,9.091,0,0,1,4.667-1.076c.729,0,1.462.044,2.194.088s1.464.085,2.194.085a11.648,11.648,0,0,0,2.317-.2,1.864,1.864,0,0,1,.391-.035,7.209,7.209,0,0,1,1.332.188,6.873,6.873,0,0,0,1.382.2c1.012,0,1.55-.576,1.694-1.8.038-.329-.009-.585,0-.888.009-.179.006-.359,0-.538a7.286,7.286,0,0,0-.147-1.5,5.28,5.28,0,0,0-.326-1.026,4.437,4.437,0,0,0-.426-.741,4.528,4.528,0,0,0-.517-.579,4.658,4.658,0,0,0-1.009-.75c-.135-.077-.291-.141-.441-.209a6.03,6.03,0,0,0-.856-.4,12.37,12.37,0,0,1-5.478-3.011,3.433,3.433,0,0,0-2.044-1.644c-.2-.023-.37-.071-.5-.094l-.544-.985-1.267-.917-.456-1.1a5.069,5.069,0,0,0-3.247-1.77,3.521,3.521,0,0,0-2.432,1.165,2.6,2.6,0,0,0-.2.512,2.624,2.624,0,0,0-.106.273,2.689,2.689,0,0,0-.168.421l-.856.809c-.779,1.079-.253,1.92.256,2.732a2.849,2.849,0,0,1,.653,1.805,3.343,3.343,0,0,1-.57.027Z" transform="translate(557.863 -74.303)" fill="#881d1f"/>
  <path id="Path_83" data-name="Path 83" d="M373.125,272.109c.176,0,.356-.009.55-.026a1.887,1.887,0,0,0,.521-.179l.012,0a2.646,2.646,0,0,1-.4,1.6,2.382,2.382,0,0,0-.323,1.967l1.732,1.52,1.061.988a7.892,7.892,0,0,0,2.632.465c2.635,0,4.873-1.42,7.037-2.8l1.138-.773a2.113,2.113,0,0,0,1.306.659,11.876,11.876,0,0,0,3.2-.588l.929-.253a7.615,7.615,0,0,1,2.164-.45c1.376-.153,2.794-.309,3.729-1.77a2.1,2.1,0,0,0,.115-.632l.341-.191c1.038-.579,2.108-1.173,2.2-2.735l-1.967-2.159-1.229-1.714-4.149-2.9a3.91,3.91,0,0,1-1.35.238,8.4,8.4,0,0,1-2.882-.712,8.471,8.471,0,0,0-2.932-.72,2.935,2.935,0,0,0-.368.021,15.171,15.171,0,0,0-2.756-.247,31.67,31.67,0,0,0-9.066,1.788c-1.585.477-3.229.97-4.858,1.306a3.017,3.017,0,0,0-2.432,1.844c-.423,1.214.062,2.826,1.3,4.311A6.767,6.767,0,0,0,373.125,272.109Z" transform="translate(610.263 -95.414)" fill="#881d1f"/>
  <path id="Path_84" data-name="Path 84" d="M118.349,255.91l.424.273c2.958,1.885,6.014,3.832,7.213,7.508a.065.065,0,0,0,.062.044h.009c3.152-.379,4.935-1.8,5.555-4.379.021-.082.068-.132.088-.215a6.393,6.393,0,0,1,1.332,1.15,2.937,2.937,0,0,0,2.144,1.217c.635.044,1.209.071,1.726.071,4.093,0,4.782-1.655,5.164-7.8a7.485,7.485,0,0,0-3.011-2.861,6.843,6.843,0,0,0-4.849-1.594c-.588,0-1.182.035-1.773.068s-1.182.062-1.767.062c-.259,0-.518-.006-.785-.018a6.635,6.635,0,0,1-.906.059,16.913,16.913,0,0,1-1.985-.159,18.414,18.414,0,0,0-1.994-.153,4.619,4.619,0,0,0-3.785,1.641c-.373.929-1.167,1.006-2.008,1.085-.782.073-1.591.15-2.026.962a2.1,2.1,0,0,0-.294,1.659A2.526,2.526,0,0,0,118.349,255.91Z" transform="translate(124.876 -117.777)" fill="#881d1f"/>
  <path id="Path_85" data-name="Path 85" d="M362.4,284a2.5,2.5,0,0,0,.565,1.012l.023.023a3.467,3.467,0,0,0,.541.567,47.5,47.5,0,0,0,7.858,4.938,6.243,6.243,0,0,0,2.65.491c3.72,0,8.825-2.082,9.146-4.29.453-3.064.685-6.272-1.767-8.86a9.1,9.1,0,0,1-.791-.559,4.418,4.418,0,0,0-1.462-.785l-.041-.012a1.8,1.8,0,0,0-.441-.126,2.238,2.238,0,0,0-1.247.429,12.178,12.178,0,0,1-6.467,2.155c-.241,0-1.141-.053-1.338-.053a9.68,9.68,0,0,0-5.823,2.147,3.221,3.221,0,0,0-1.547,2.444,1.9,1.9,0,0,0,.1.35C362.369,283.919,362.386,283.964,362.4,284Z" transform="translate(601.207 -64.955)" fill="#881d1f"/>
  <path id="Path_86" data-name="Path 86" d="M339.251,324.615c-.026.079,0,.1.576.318l.306.123c2.367,1.391,3.673,2.158,4.417,2.158s.926-.729.973-2.211c.026-.353.05-.753.073-1.2,1.1,3.026,3.838,3.6,6.5,4.14a24.536,24.536,0,0,1,2.623.632,1.468,1.468,0,0,0,.627-.194,3.008,3.008,0,0,0,.829.324,5.024,5.024,0,0,0,1.073.13,2.559,2.559,0,0,0,2.582-1.964l1.085-1.656a7.682,7.682,0,0,0,1.479-.812,4.438,4.438,0,0,1,2.285-.962,2.653,2.653,0,0,1,1.753.765,2.965,2.965,0,0,0,1.482.95,2.567,2.567,0,0,1,1.935,1.85c.044.173.164.25.238.388a1.39,1.39,0,0,0,.179.3,1.358,1.358,0,0,0,.538.379,1.767,1.767,0,0,0,.4.112c.132.021.212.1.364.1a8.445,8.445,0,0,0,1.35-.156,8.445,8.445,0,0,1,1.179-.144,1.65,1.65,0,0,0,1.732-1.47c.185-1.382-.741-1.947-1.641-2.494-.2-.124-.394-.244-.582-.374l-2.738-1.856-7.893-13.562a5.4,5.4,0,0,0-1.094-3.426c-.238-.4-.476-.8-.67-1.209a2.431,2.431,0,0,0-.212-.485l-.029-1.453c1.8-2.017,1.908-4.455,2.014-6.813.047-1.032.094-2.1.227-3.067.3-.032.591-.044.882-.05l.232,0a14.7,14.7,0,0,1,3.576.588c2.935.788,6,1.294,8.963,1.779,1.209.2,2.414.4,3.6.609l2.176,1.423a5.875,5.875,0,0,0,2.347.526,4.3,4.3,0,0,1,3,1.053,2.192,2.192,0,0,0,1.373.791.9.9,0,0,0,.718-.379c.465-.6.123-1.165-.206-1.709a3.379,3.379,0,0,1-.447-.962l-5.834-3.932c-.044-.332-.062-.673-.082-1.015a4.633,4.633,0,0,0-.832-2.9,2.132,2.132,0,0,0-.353-1.882,3.461,3.461,0,0,0-2.6-1.032c-.012,0-.35.024-.5.024a7.026,7.026,0,0,1-3.517-1.217,11.028,11.028,0,0,0-2.058-.982c-1.159-.362-2.185-.806-2-2.191.168-1.267,1.288-1.673,2.37-2.07,10.613-3.87,10.889-4.808,11.2-15.956.076-2.591-.232-4.046-1.026-4.864a2.714,2.714,0,0,0-2.061-.747,8.953,8.953,0,0,0-2.594.47c-4.679,1.05-10.5,3-14,8.746a2.705,2.705,0,0,0-.532,1.976.89.89,0,0,0,.259.394c.015.026.023.056.038.079a5.746,5.746,0,0,0-.9.315,8.092,8.092,0,0,0-1.167.935c-.077.056-.162.112-.235.171l.124-.2c.147-.229.294-.462.459-.691.115-.253.256-.5.391-.744a4.853,4.853,0,0,0,.776-2.158c2.409-4.505,2.214-9.828-.485-13.239s-1.717-4.879.4-7.416c.938-1.129,2.356-2.835.85-4.434a2.954,2.954,0,0,0-2.229-.962,5.333,5.333,0,0,0-2.841.967,23.055,23.055,0,0,0-8.566,9.263,7.858,7.858,0,0,0-1.7,3.782,9.5,9.5,0,0,1-1.206,3.173l-1.1,7.137c-3.984,4.8-3.964,6.746.124,10.942,1.994,2.05,2.353,4.44,1.126,7.519a9.28,9.28,0,0,0-.2,5.093l.1.709a8.485,8.485,0,0,1,.332,1.279,4.6,4.6,0,0,0,1.07,2.482c.33.365.647.729.95,1.076L352.44,298l.779,4.708c-1.7.894-2.162,2.482-2.611,4.02a10.617,10.617,0,0,1-.876,2.311,1.965,1.965,0,0,0-.206.438,3.708,3.708,0,0,1-.641.059,7.123,7.123,0,0,1-3.408-1.238,7.146,7.146,0,0,0-3.467-1.259,3.824,3.824,0,0,0-.9.109c-2.455,1.123-3.685,2.661-3.767,4.7a15.526,15.526,0,0,0,1.1,5.455C339.216,319.625,340.013,322.027,339.251,324.615Zm19.7-50.65a5.873,5.873,0,0,0,1.367-1.024,5.647,5.647,0,0,0-.394,1.729,2.761,2.761,0,0,0-1.038.662,2.2,2.2,0,0,1-1.35.706c-.138,0-.276-.024-.394-.024h-.047C357.239,275.011,358.11,274.476,358.948,273.965Zm2.244-2.529c-.138.179-.265.365-.382.547a2.288,2.288,0,0,0,.038-.388A.7.7,0,0,0,361.192,271.436Z" transform="translate(552.848 -135.746)" fill="#881d1f"/>
  <path id="Path_87" data-name="Path 87" d="M435.526,277.107a10.5,10.5,0,0,0-2.723.335c-1.929-.326-3.917-.459-5.837-.588a55.929,55.929,0,0,1-6.475-.7c-.353-.068-.706-.15-1.059-.232-.479-.112-.962-.209-1.441-.35-1.285,1.482-1.765,2.638-1.468,3.535.309.923,1.462,1.594,3.526,2.041a18.628,18.628,0,0,0,3.385.315c2.206.071,4.49.147,6.393,1.764,3.341,2.22,7.225,3.067,10.981,3.882l1.615.356a12.879,12.879,0,0,0,2.873.35,7.035,7.035,0,0,0,5.317-2.135l4.917-.691c.265.021.529.032.794.032a5.005,5.005,0,0,0,2.282-.468c.726-.615,1.035-1.076.976-1.456-.018-.1-.127-.165-.191-.244l-.015-.018a2.352,2.352,0,0,0-.929-.591c-.494-.2-1.012-.4-1.068-.806a2.927,2.927,0,0,0-2.4-1.026c-.365,0-.732.035-1.1.071a13.334,13.334,0,0,1-1.356.068l-1.479-.988-1.559-1.009a10.914,10.914,0,0,1-2.541.285,25.929,25.929,0,0,1-5.693-.862A26.005,26.005,0,0,0,435.526,277.107Z" transform="translate(706.357 -66.573)" fill="#881d1f"/>
  <path id="Path_88" data-name="Path 88" d="M350.364,282.106l-5.008-1.094a8.677,8.677,0,0,1-3.788-1.235,8.781,8.781,0,0,0-3.846-1.247,3.476,3.476,0,0,0-1.77.462c-.041.018-.079.018-.124.038a4.369,4.369,0,0,0-.121-.912,60.967,60.967,0,0,0-15.524-2.405c-1.07,0-2.144.044-3.226.138-2.1.179-3.346.923-4.064,2.429a12.211,12.211,0,0,1-1.047,3.9c-.7,1.794-1.429,3.65-.853,5.723a3.212,3.212,0,0,0,2.929,3.061c.135.317.306.479.512.479.07,0,.132-.088.2-.124l.012-.006c.091-.05.188-.059.265-.165l.412.009a17.337,17.337,0,0,0,6.984-1.967,19.889,19.889,0,0,1,6.084-1.935l2.247,1.782a1.5,1.5,0,0,0,1,.506,1.259,1.259,0,0,0,.97-.582,5.994,5.994,0,0,1,4.1-1.556,5.7,5.7,0,0,1,1.288.144,34.111,34.111,0,0,0,7.808.953,24.309,24.309,0,0,0,7.725-1.2c.165-.05.332-.065.5-.118-1.412,4.014.173,7.384,1.914,10.151l.347.529a4.214,4.214,0,0,1,1.029,2.853l1.829,2.264a3.572,3.572,0,0,0,1.55.523,1.554,1.554,0,0,0,1.373-.953c1.406-1.664,1.479-3.214.25-5.346-1.982-3.44-2.541-5.243-2.064-6.664.526-1.567,2.432-2.641,5.335-3.867a7.291,7.291,0,0,0,1.162-.667,9.093,9.093,0,0,1,.944-.567c.985-.48,1.5-1.1,1.453-1.738-.05-.621-.623-1.17-1.494-1.441l-.853-.265a32.292,32.292,0,0,0-9.4-1.947A12.57,12.57,0,0,0,350.364,282.106Z" transform="translate(501.316 -66.294)" fill="#881d1f"/>
  <path id="Path_89" data-name="Path 89" d="M159.191,233.077c.494.279.923.523.582,1.288-1.162,1.153-1.623,2.108-1.412,2.923.3,1.173,2.014,1.779,3.273,2.132a4.344,4.344,0,0,0,1.162.156h0a9.472,9.472,0,0,0,4-1.217,6.4,6.4,0,0,0,3.082-3.914,5.815,5.815,0,0,0-.024-5.979l-4.023-4.9c-.75-1.944-1.579-2.891-2.541-2.891-1.07,0-2.158,1.182-3.211,2.329l-.4.438c-2.594,1.7-3.752,3.017-3.882,4.411-.126,1.37.735,2.826,2.876,4.873A2.653,2.653,0,0,0,159.191,233.077Z" transform="translate(200.503 -173.11)" fill="#881d1f"/>
  <path id="Path_90" data-name="Path 90" d="M332.456,234.637c.017.056.041.115.065.173a2.976,2.976,0,0,0,.215.562,7.257,7.257,0,0,1,.724,2.009c.344,1.326.75,2.632,1.929,3.085h0a2.267,2.267,0,0,0,.868.209,5.3,5.3,0,0,0,1.829-.388c.288-.415.62-.812.947-1.209,1.109-1.335,2.253-2.714,1.779-4.8a6.689,6.689,0,0,1,1.344-4.161,16.977,16.977,0,0,0,.85-1.547,7.446,7.446,0,0,0-5.711-10.913c-.688.329-1.42.756-1.62,1.423a1.854,1.854,0,0,0,.309,1.514l.335,5.82a1.209,1.209,0,0,0,.512,1.129,3.146,3.146,0,0,1-.129,2.547,2.435,2.435,0,0,1-1.7,1.1,3.314,3.314,0,0,0-2.588,1.741,2.216,2.216,0,0,0-.056.444,1.789,1.789,0,0,0-.032.247A2.479,2.479,0,0,0,332.456,234.637Z" transform="translate(543.11 -178.967)" fill="#881d1f"/>
  <path id="Path_91" data-name="Path 91" d="M320.665,279.169c.07-1.341-.9-2.706-2.961-4.176-.935-.37-1.864-.785-2.794-1.2-2.861-1.279-5.817-2.6-8.948-2.6a10.954,10.954,0,0,0-4.761,1.088,2.384,2.384,0,0,0-.488,1.015,2.7,2.7,0,0,0-2.117,1.679,10.653,10.653,0,0,1-1.129,2.417c-.979,1.706-1.991,3.47-.667,5.731,1.37,2.364,2.77,3.464,4.411,3.464a4.982,4.982,0,0,0,2.385-.7,2.807,2.807,0,0,1,1.294-.435c.485,0,.885.259,1.429.929.891,1.088,1.667,1.62,2.382,1.62.932,0,1.709-.909,2.435-2.835l.832-.9a8.6,8.6,0,0,0,.991.056,8.178,8.178,0,0,0,4.076-1.085C319.4,281.889,320.589,280.563,320.665,279.169Z" transform="translate(472.944 -75.076)" fill="#881d1f"/>
  <path id="Path_92" data-name="Path 92" d="M330.035,292.509a2.948,2.948,0,0,0-2.52,2.594c-1.632,3.261-1.3,5.543,1.076,7.375,4.437,6.646,11.724,9.825,18.206,12.277a4.363,4.363,0,0,0,1.538.279c2.094,0,4.285-1.42,6.408-2.794a30.017,30.017,0,0,1,3.5-2.056c2.9-.015,5.437-.247,7.052-2.917.45-2.279.917-4.635-.25-6.928a27.957,27.957,0,0,1-4.767-3.988c-2.029-1.97-4.129-4.005-6.928-5.043a.8.8,0,0,0-.494-.218c-.138,0-.264.053-.365.053l-.044-.006a4.515,4.515,0,0,0-3.585-1.964,4.969,4.969,0,0,0-1.465.235c-1.955.341-3.917.85-5.811,1.338a42.069,42.069,0,0,1-10.513,1.785C330.755,292.532,330.435,292.526,330.035,292.509Z" transform="translate(531.822 -40.17)" fill="#881d1f"/>
  <path id="Path_93" data-name="Path 93" d="M409.031,316.467c.018-.062.038-.123.053-.182a4.748,4.748,0,0,0,.091-1.447c-.012-.115-.018-.229-.035-.344a6.758,6.758,0,0,0-.447-1.559c-.024-.059-.047-.118-.074-.179-.129-.3-.2-.576-.37-.891a5.282,5.282,0,0,0-2.932-1.2c-1.212,0-2.147.806-2.861,2.458a3.712,3.712,0,0,0-.18,1.485c.009,1.059,0,2.055-1.617,2.37l-.006-.032,0,0,.044-.047-.194-.07-.144-.115.082.091-.132-.047.256.282.044-.047,0,0,.021,0L400.6,317a.664.664,0,0,1-.218.682,14.7,14.7,0,0,0-.606,1.938,8.245,8.245,0,0,1-1.323,3.141,19.67,19.67,0,0,1-2.27,1.25l-.047.021-.271-.7a6.791,6.791,0,0,0-1.658-2.794c-.038-.032-.079-.062-.121-.094a3.126,3.126,0,0,0-1.223-.559c-.115-.023-.226-.053-.35-.067a3.377,3.377,0,0,0-.556-.112l-.141.088c-.085,0-.156-.015-.247-.009l-.041.188-.073.047-.062.409a3.03,3.03,0,0,0-1.67,2.429c-.065.25-.135.5-.212.8l1.862,3.076.056.8a5,5,0,0,0,1.211,3.546c.056.053.121.1.179.15a2.807,2.807,0,0,0,.42.356,1.493,1.493,0,0,0,.247.944l1.006.212.991-.285,1.529-.029a2.932,2.932,0,0,0,.509.444,2.994,2.994,0,0,0,.782.109,2.154,2.154,0,0,0,.718-.212c.07-.027.15-.032.215-.065a2.3,2.3,0,0,0,.565-.406c.065-.062.124-.138.185-.209a2.927,2.927,0,0,0,.476-.535,6.769,6.769,0,0,0,.909-3.949c.629-.873,1.241-1.764,1.85-2.658a61.034,61.034,0,0,1,4.435-5.934,7.654,7.654,0,0,0,.629-.92l.012-.015A5.539,5.539,0,0,0,409.031,316.467Z" transform="translate(654.093 1.537)" fill="#881d1f"/>
  <path id="Path_94" data-name="Path 94" d="M328.065,237.16a4.221,4.221,0,0,0,.521.444,3.13,3.13,0,0,0,.244.209,3.007,3.007,0,0,0,1.373.626,2.853,2.853,0,0,0,.5.124,4.506,4.506,0,0,0,2.526-.909c1.665-1.153,1.882-2.841.662-5.173-.371-.459-.782-.9-1.191-1.338a10.9,10.9,0,0,1-2.27-3.061c-.8-1.935-1.823-2.876-3.135-2.876a6.308,6.308,0,0,0-3.335,1.365c-.594,1.376-1.115,3.182.165,4.94Z" transform="translate(525.664 -164.313)" fill="#881d1f"/>
  <path id="Path_95" data-name="Path 95" d="M295.778,263.439a7.472,7.472,0,0,0-3.291,1.029l-.676.15a15.9,15.9,0,0,0-6.214,5.946,3.051,3.051,0,0,0-.318,1.353l.359.585.982.923a.058.058,0,0,0,.044.015c.006,0,1.779-.544,2.661-.809,1.979-.594,3.961-1.191,5.893-1.914,2.394-.894,3.923-1.664,4.155-2.735.241-1.1-.865-2.467-2.885-4.482A4,4,0,0,0,295.778,263.439Z" transform="translate(451.818 -90.114)" fill="#881d1f"/>
  <path id="Path_96" data-name="Path 96" d="M226.97,333.431l.271-.079a8.424,8.424,0,0,1,3.767-.965c1.929-.194,3.755-.373,4.908-2.288.288-.479-.394-1.67-.794-2.235-1.07-1.506-2.591-2.15-5.084-2.15-.259,0-.523.009-.809.024l-.623.074c-1.579.171-3.743.4-4.064,2.994a6.13,6.13,0,0,0,1.465,4.02A1.467,1.467,0,0,0,226.97,333.431Z" transform="translate(333.904 30.745)" fill="#881d1f"/>
  <path id="Path_97" data-name="Path 97" d="M355.918,342.119a5.129,5.129,0,0,1-.2-.538c-.165-.474-.332-.961-.638-1.044a19.066,19.066,0,0,1-3.193-1.256,12.3,12.3,0,0,0-5.108-1.512,6.593,6.593,0,0,0-1.062.085,2.433,2.433,0,0,0-1.941,1.088,2.285,2.285,0,0,0,.291,2.079c1.188,2.2,3.311,2.979,5.364,3.732a22.924,22.924,0,0,1,2.235.906l.262.053a5.447,5.447,0,0,0,3.476-2.591,4.317,4.317,0,0,0,.244-.476A4.047,4.047,0,0,0,355.918,342.119Z" transform="translate(565.063 54.14)" fill="#881d1f"/>
  <path id="Path_98" data-name="Path 98" d="M412.292,277.1a1.823,1.823,0,0,0,1.617.759c.209,0,.423-.018.638-.035s.424-.035.632-.035a2.371,2.371,0,0,1,.8.127l.085.006a2.323,2.323,0,0,0,1.806-1.117,6.074,6.074,0,0,1,.547-.591,3.627,3.627,0,0,0,1-3.011c-.241-1.038-1.179-1.929-2.955-2.8a5.749,5.749,0,0,0-2.5-.676c-1.708,0-2.92,1.129-3.611,3.364A3.214,3.214,0,0,0,412.292,277.1Z" transform="translate(694.244 -77.911)" fill="#881d1f"/>
  <path id="Path_99" data-name="Path 99" d="M417.453,272.1l.382.326c.117.141.229.288.338.441a2.539,2.539,0,0,0,1.229,1.059l.044.006a1.819,1.819,0,0,0,.532.085c.056,0,.115,0,.176-.006.129,1.109.97,1.273,1.858,1.418.309,1.023,1.185,1.317,2.032,1.6.826.276,1.606.538,1.923,1.429a2.6,2.6,0,0,0,1.132,1.5c1.515,2.656,3.938,3.411,6.511,4.208.879.276,1.764.55,2.617.912a10.369,10.369,0,0,0,4.011.92c2.444,0,4.508-1.217,6.508-3.873-.088-1.908-1.429-2.932-2.952-4.093a2.249,2.249,0,0,0-.95-.279c-.453,0-.765.279-.938.826a1.774,1.774,0,0,1-1.079.576c-.615,0-.894-.8-1.02-1.467a10.937,10.937,0,0,0-2.17-4.267c-.253-.35-.5-.706-.747-1.065a1.873,1.873,0,0,0-1.044-.718l-.332.029-.579-.759-1.1-1.37-1.908-.109-2.9.012a10.07,10.07,0,0,0-4.467-1.159,10.16,10.16,0,0,1-3.955-.929,5.178,5.178,0,0,0-2.409-.773c-1.232,0-2.079.812-2.844,2.75A5.372,5.372,0,0,0,417.453,272.1Z" transform="translate(704.253 -84.03)" fill="#881d1f"/>
  <path id="Path_100" data-name="Path 100" d="M207.015,316.244a6.76,6.76,0,0,0-4.855-2.438,6.092,6.092,0,0,0-3.129.944,5.773,5.773,0,0,0,1.056,2.029c.8,1.138,1.623,2.314.8,4.261a1.307,1.307,0,0,0,0,1.241c.515.826,2.223.926,3.449.994l.282.012a2.8,2.8,0,0,0,1.747-.544c.032-.024.065-.044.094-.068.088-.079.226-.124.294-.218a1.891,1.891,0,0,0,.141-1.776,4.6,4.6,0,0,1,.027-2.409A4.734,4.734,0,0,0,207.015,316.244Z" transform="translate(284.435 7.633)" fill="#881d1f"/>
  <path id="Path_101" data-name="Path 101" d="M357.955,329.342a9.13,9.13,0,0,1-1.067-.726,4.032,4.032,0,0,0-2.282-1.082,2.658,2.658,0,0,0-1.753.785c-1.194,1.056-2.479,2.538-1.791,4.667a4.024,4.024,0,0,0,3.441,3.076c.124.015.347.021.347.021,1.526,0,1.926-1.115,2.311-2.194a4.058,4.058,0,0,1,.921-1.688,2.1,2.1,0,0,0,.773-1.588A1.839,1.839,0,0,0,357.955,329.342Z" transform="translate(579.108 34.275)" fill="#881d1f"/>
  <path id="Path_102" data-name="Path 102" d="M136.574,240.183a3.017,3.017,0,0,0,.42-.029,4.473,4.473,0,0,0,.659-.227c.074-.024.147-.047.221-.077a4.634,4.634,0,0,0,1.241-.679c.041-.032.082-.065.124-.1a4.75,4.75,0,0,0,.929-1c.062-.091.121-.185.176-.279a3.971,3.971,0,0,0,.447-1.1,3.52,3.52,0,0,0,.068-.385,3.381,3.381,0,0,0,.106-.588,3.159,3.159,0,0,0-.191-.75l0-.015c-.426-1.4-1.8-2.561-4.332-3.491-2.223,1.109-2.429,3.338-2.391,4.923C134.077,237.528,134.377,240.183,136.574,240.183Z" transform="translate(158.314 -152.162)" fill="#881d1f"/>
  <path id="Path_103" data-name="Path 103" d="M364.024,268.247c.826.644,1.65,1.288,2.414,1.982a1.4,1.4,0,0,0,.932.415,1.206,1.206,0,0,0,.874-.415c.768-.782.265-1.45-.294-2.194a43.421,43.421,0,0,0-7.916-7.869l-1.723.041-.209,0,0,.006-.068,0C358.66,264.051,361.386,266.18,364.024,268.247Z" transform="translate(593.018 -96.466)" fill="#881d1f"/>
  <path id="Path_104" data-name="Path 104" d="M359.287,338.467a11.325,11.325,0,0,0-1.32-.088,4.494,4.494,0,0,0-4.229,2.194,1.52,1.52,0,0,0-.279,1.259c.044.132.182.212.279.315l.041.044a3.34,3.34,0,0,0,1.088.647l.294.115a6.463,6.463,0,0,0,4.058,1.658h.018c2.291-.4,3.629-1.65,3.579-3.347C362.766,339.511,360.957,338.67,359.287,338.467Z" transform="translate(584.037 55.322)" fill="#881d1f"/>
  <path id="Path_105" data-name="Path 105" d="M165.951,281.417a2.557,2.557,0,0,0,.582-.07c1.685-.406,4.826-1.162,4.8-3.635-.018-2.059-1.685-2.061-3.026-2.064a5.586,5.586,0,0,1-1.279-.094,10.009,10.009,0,0,0-1.064-.062,2.535,2.535,0,0,0-2.038.656,2.45,2.45,0,0,0-.356,2.026C163.887,280.3,164.71,281.417,165.951,281.417Z" transform="translate(215.511 -66.723)" fill="#881d1f"/>
  <path id="Path_106" data-name="Path 106" d="M277.53,332.708a.9.9,0,0,0,.171.135c.1.065.129.171.268.209a12.789,12.789,0,0,1,2.341,1.044,8.266,8.266,0,0,0,3.758,1.273,4.141,4.141,0,0,0,2.17-.626,6.737,6.737,0,0,0-.065-.909c-.006-.109-.015-.215-.024-.318a4.981,4.981,0,0,0-.268-1.267,3.139,3.139,0,0,0-.371-.729c-.059-.079-.076-.209-.144-.282-.944-1.032-2.526-1.094-4.055-1.15a12.077,12.077,0,0,1-2.888-.341l-.32.553c-.468.782-.994,1.67-.765,2.258C277.368,332.629,277.48,332.649,277.53,332.708Z" transform="translate(436.299 38.57)" fill="#881d1f"/>
  <path id="Path_107" data-name="Path 107" d="M304.321,315.444a10.229,10.229,0,0,0,3.464.979,1.565,1.565,0,0,0,1.4-.815c.026-.044.059-.073.085-.117a9.652,9.652,0,0,0,.723-3.946,4.738,4.738,0,0,0-6.3-.05c-1.185.95-.491,2.073.115,3.064C303.982,314.85,304.159,315.135,304.321,315.444Z" transform="translate(486.295 0.87)" fill="#881d1f"/>
  <path id="Path_108" data-name="Path 108" d="M261.771,365.622a10.469,10.469,0,0,1-1.494,1.429c-1.326,1.111-2.7,2.258-2.25,4.517-.094.923.488,1.382,1.05,1.826a2.8,2.8,0,0,1,1,1.147,3.184,3.184,0,0,0,.421.032,2.5,2.5,0,0,0,.376-.026c.67,1.547.1,3.005-.447,4.414-.556,1.426-1.129,2.9-.465,4.461.006.394-.012.788-.035,1.188a5.955,5.955,0,0,0,.876,4.143c-.021.671-.038,1.365.747,1.717,1.009,1.967,2.1,3.273,4.173,3.273a8.294,8.294,0,0,0,2.735-.562c.509-.179,1.026-.382,1.553-.588a17.074,17.074,0,0,1,6.093-1.535,11.628,11.628,0,0,1,1.523.112,7.947,7.947,0,0,0,.412.735c.309.509.632,1.038.509,1.376-1.662,4.555.47,7.878,3.023,10.784a4.439,4.439,0,0,1,.823,2.755,9.359,9.359,0,0,0,.165,1.391c1.073,4.9-.45,9.469-1.92,13.88a35.152,35.152,0,0,0-2.22,10.016v.1c-.012.532-.065,1.058-.026,1.6.032.462-.7,1.111-1.088,1.461-3.041,2.711-2.964,6.231-2.555,9,.265,2.711,1.529,4.408,3.849,5.178a13.975,13.975,0,0,0,1.267.726,5.739,5.739,0,0,1,2.761,2.335,3.856,3.856,0,0,0,3.452,2.1,5.639,5.639,0,0,0,4.561-2.755,29.028,29.028,0,0,0,4.755-.7,26.6,26.6,0,0,1,5.2-.712,9.342,9.342,0,0,1,5.764,1.835,1.459,1.459,0,0,0,.873.288,1.769,1.769,0,0,0,1.629-1.247c.356-1.026-.429-1.544-1.12-1.994l-.359-.188a1.856,1.856,0,0,0-.676-1.97,4.091,4.091,0,0,1-.582-.735A24.98,24.98,0,0,0,305.1,439.9c-.785-3.167-1.6-6.428-.456-9.748l0-.009a10.481,10.481,0,0,1,.612-1.42c1.756-3.42,3.57-6.961.994-10.854l-.027-.832a9.079,9.079,0,0,0-.829-4.279c.2-1.564.235-3.179.274-4.737.079-3.282.159-6.681,1.7-9.807a1.926,1.926,0,0,0,.115-1.782,2.3,2.3,0,0,0-.047-.238l-.009.006c-.012-.024-.006-.041-.018-.065l-.241.091-.041-9.572a1.525,1.525,0,0,0,.694-1.091,3.205,3.205,0,0,1-.085-.77c-.026-.676-.053-1.441-.991-1.441h-.059a3.634,3.634,0,0,0-1-2.6,5.017,5.017,0,0,1-1.362-3.864c.2-1.214,1.085-2.308,2.685-3.335A9.016,9.016,0,0,0,309.2,371.6a3.19,3.19,0,0,1,.541-.676c.029-.029.053-.065.085-.094a6.745,6.745,0,0,1,2.347-1.238,7.975,7.975,0,0,0,1.906-.891c.418.032.847.041,1.273.041l2.305-.029a8.812,8.812,0,0,1,5.079,1.211l.277,6.337c.5,1.9-.494,3.253-1.744,4.714a7.6,7.6,0,0,0-2.161,4.735,9.928,9.928,0,0,0-1.32,5.255c.009.121.038.238.056.356a4.707,4.707,0,0,0,.465,1.505c.068.132.156.262.238.391a4.674,4.674,0,0,0,.421.682,73.908,73.908,0,0,0,15.765,13.109,1.55,1.55,0,0,0,1.391.744,2.673,2.673,0,0,1,.817.2c.741.268,1.179.644,1.3,1.112a2.02,2.02,0,0,1-.673,1.747,4.809,4.809,0,0,0-.906,4.064,8.718,8.718,0,0,0-1.385,9.14,4.407,4.407,0,0,0,.365.894c2.691,4.976,7.522,5.787,11.863,5.917a4.974,4.974,0,0,0,2.485.718c1.782,0,3.3-1.144,4.558-2.279a3.025,3.025,0,0,0-.579-3.438.905.905,0,0,1-.656-.435,6.947,6.947,0,0,1-.138-2.649,5.232,5.232,0,0,0,.826-1.035c.068-.165.144-.291.188-.388a5.424,5.424,0,0,1,1.144-.253,3.714,3.714,0,0,0,1.611-.491l-.038-.053h0l.356.106a5.451,5.451,0,0,0,1.359-.168,14.706,14.706,0,0,0,2.561-.973c.144-.065.294-.109.432-.182l.082-.065c.041-.023.079-.032.121-.056a2.2,2.2,0,0,0,.973.232,2.138,2.138,0,0,0,1.282-.426,5.327,5.327,0,0,0,2.014,1.62,11.5,11.5,0,0,0,1.479.7c.247.1.5.182.747.277.182.085.371.159.547.256a5.846,5.846,0,0,0-.77-.068c-2.3,0-4.188,1.479-6.017,2.908-.5.4-1.009.791-1.5,1.147a6.566,6.566,0,0,0-.914.4,1.525,1.525,0,0,0-.571.629l-.882.9-.891.976a11.013,11.013,0,0,1,.656,8.149,7.035,7.035,0,0,1-1.647,1.805c-.921,5.032-.106,6.32,4.585,7.249.273.053.556.088.835.121,1.006.115,1.953.22,2.449,1.37l.25.717a8.636,8.636,0,0,1,.476,1.559,8.031,8.031,0,0,0,.282.929c.044.153.088.3.138.447a5.642,5.642,0,0,0,.6,1.223,4.479,4.479,0,0,0,.473.615,4.211,4.211,0,0,0,.747.623,4.769,4.769,0,0,0,.779.409,6.235,6.235,0,0,0,1.5.368c.147.021.285.047.438.059.253.021.453.094.726.094l.444-.012c3.423-.12,5.04-1.779,5.4-5.537a11.311,11.311,0,0,1,.524-2.191,4.43,4.43,0,0,0,.217-.959l.512.079.341-.244a2.858,2.858,0,0,0,1.173.271,4.557,4.557,0,0,0,2.811-1.459c1.75-.5,4.4-1.247,3.838-3.982a4.542,4.542,0,0,0-2.22-3.208l-.041-.026a4.2,4.2,0,0,0-2.017-.547,3.353,3.353,0,0,0-.556.041c-2.161-1.2-2.505-2.767-1.147-5.229.141-.259.268-.52.388-.768.441-.926.791-1.662,1.741-1.662a4.121,4.121,0,0,1,1.694.494,1.848,1.848,0,0,0,.8.2,1.4,1.4,0,0,0,.512-.165h.006A1.764,1.764,0,0,0,386,428.7a2.287,2.287,0,0,0,.1-.447c.023-.071.032-.141.05-.215a2.247,2.247,0,0,0,0-.97,1.654,1.654,0,0,0-.088-.274,1.86,1.86,0,0,0-.138-.426,12.3,12.3,0,0,1-1.712-4.637c-.756-3.323-1.538-6.758-6.752-6.925a.818.818,0,0,1-.338-.1,1.013,1.013,0,0,1-.171-.082,2.017,2.017,0,0,1-.444-1.373,2.594,2.594,0,0,0-.315-1.235c.421-.418.729-.6,1.009-.6s.553.224.812.709a6.33,6.33,0,0,0,3.711,1.588,4.17,4.17,0,0,0,3.249-1.832,9.332,9.332,0,0,0,1.106-5.211c-.185-1.544-.635-3.385-1.753-3.385a1.2,1.2,0,0,0-.418.079,9.367,9.367,0,0,1-2.914.394c-1.5.041-3.014.141-4.158,1.206-.053.047-.094.118-.144.168a3.724,3.724,0,0,0-.629.735l-2.908-.609a1.161,1.161,0,0,0-.776-.288,3.485,3.485,0,0,0-1.482.523,2.485,2.485,0,0,1-.976.385c-.138,0-.341-.047-.45-.456a8.377,8.377,0,0,0-.494-1.179l-.05-.115a18.518,18.518,0,0,0-4.893-5.8c-3.105-2.755-6.314-5.6-5.523-10.745a13.177,13.177,0,0,1,2.076-1.341,7.949,7.949,0,0,0,2.961-2.438l.056-.082a4.123,4.123,0,0,0,.417-.953c.012-.05.015-.106.029-.156a4.549,4.549,0,0,0,.218-1.141c.165-1.391-.788-1.808-1.873-2.15l-2.832-2.1a5.477,5.477,0,0,0-.071-1.114c0-.047,0-.1-.009-.15a9.418,9.418,0,0,0-2.72-4.935c-.429-.491-.859-.979-1.259-1.509a8.772,8.772,0,0,1-1.109-.909c-.053-.05-.112-.094-.162-.144a20.291,20.291,0,0,1-2.752-3.661,25.479,25.479,0,0,0-2.117-2.994l-5.7-7.955a7.476,7.476,0,0,0-.979-.738,6.043,6.043,0,0,1-1.764-1.609,4.035,4.035,0,0,1-.473-.965c2.738-.65,4.055-2.741,5.329-4.767a14.553,14.553,0,0,1,2.8-3.558l.9-.253c.25.018.494.024.738.024a7.756,7.756,0,0,0,5.276-1.867,10.493,10.493,0,0,1,1.038-1.1c.053-.05.1-.1.159-.153a24.678,24.678,0,0,1,3.961-2.735,31.7,31.7,0,0,0,3.547-2.341c1.723,0,2.376-1.259,2.9-2.573-.015-.306-.006-.6,0-.844a10.732,10.732,0,0,0,4.061-5.981,5.2,5.2,0,0,0,1.97-2.5,2.939,2.939,0,0,0,.632-.071c.891-.423,1.817-.759,2.744-1.091.538-.194,1.079-.388,1.594-.6l.947-.112.865.288a7.121,7.121,0,0,1,3.491,1.929,4.1,4.1,0,0,0,3.1,1.45,4.624,4.624,0,0,0,.644-.129c.138-.021.279-.05.42-.085a5.137,5.137,0,0,0,1.212-.467,6.517,6.517,0,0,0,.688-.418c.159-.112.324-.162.479-.291a6.522,6.522,0,0,1,.676-2.923c.494-1.238,1.006-2.517.468-3.926.609-3.564-.532-5.417-4.211-6.825a12.74,12.74,0,0,0-4.646-.859,26.8,26.8,0,0,0-7.575,1.47,40.136,40.136,0,0,1-5.449,1.329l-2.373,2.738a.756.756,0,0,0-.547.218l-2.761-.032c-1.529-.018-3.055-.038-4.582-.038-.776,0-1.553.006-2.435.021l-.965-.021a2.174,2.174,0,0,0-1.6.473,2.045,2.045,0,0,0-.421,1.559l-.059.479-.035.441c-2.461,1.859-4.676,2.761-6.767,2.761-2.432,0-4.69-1.235-6.949-3.793l-.991-.12a3.068,3.068,0,0,0-1.22-.315c-.794,0-1.326.544-1.547,1.57l-1.423,1.017-1.112.1a6.653,6.653,0,0,0-4.317,6.255,2.709,2.709,0,0,0,.2.982,14.7,14.7,0,0,1-1.511,1.376c-1.238,1.035-2.52,2.106-2.72,3.847a5.734,5.734,0,0,0-.7.938,3.188,3.188,0,0,0-.268.959,10.962,10.962,0,0,1-2.112.209,11.953,11.953,0,0,1-2.344-.247,2.318,2.318,0,0,0-.75-.912,1.987,1.987,0,0,0-.726-.115c-.038,0-.079,0-.121,0l-.668-.212c-2.373-.741-4.62-1.441-5.24-4.341a7.608,7.608,0,0,0-.85-1.37,4.432,4.432,0,0,1-1.112-2.611,1.77,1.77,0,0,1-.323-.988,1.824,1.824,0,0,0-.391-1.1.977.977,0,0,0-.559-.185.89.89,0,0,0-.285.047l.15-.188a2.677,2.677,0,0,0-.444-2.173,7.788,7.788,0,0,0-3.285-1.667c-1.8-.579-3.664-1.179-4.373-3.576-2.6-8.781-4.146-18.95,4.1-27.781a6.946,6.946,0,0,1,5.775-2.5c.915,0,1.853.088,2.788.182.776.074,1.553.15,2.538.179a2.2,2.2,0,0,0,.871-.2c.094-.021.188,0,.279-.032.053-.047.1-.094.144-.144a3.069,3.069,0,0,0,3.214,1.761c.282,0,.573-.012.894-.035a3.8,3.8,0,0,0,.726-.45,2.616,2.616,0,0,0,1.764.812,4.253,4.253,0,0,0,2.414-1.191,6.561,6.561,0,0,1,1.806-1.117,1.94,1.94,0,0,1,.312-.632c.568.168,1.141.374,1.709.579a12.138,12.138,0,0,0,3.985.959,4.607,4.607,0,0,0,.815-.135l.079-.012a4.513,4.513,0,0,0,2.1-.917l1.082.235a14.461,14.461,0,0,0,2.076.153,12.584,12.584,0,0,0,1.482-.085,4.793,4.793,0,0,0,1.194-.3,7.114,7.114,0,0,0,3.291.947,4.124,4.124,0,0,0,1.832-.4c.094.091.253.109.362.182a101.2,101.2,0,0,0,.888.447,7.5,7.5,0,0,0,1.864.218,19.178,19.178,0,0,0,2.911-.3l.953-.144a4.131,4.131,0,0,0,1.244-1.015l9.122-.723,6.811-.126a5.089,5.089,0,0,0,.515.57,10.48,10.48,0,0,0,2.079.177c.4,0,1.991-.05,2.388-.05a8.687,8.687,0,0,1,2.92.412,6.68,6.68,0,0,1,2.247,1.923c.947,1.079,1.926,2.2,3.523,2.2a4.026,4.026,0,0,0,1.182-.185l.976.038c1.514.018,3.035.1,4.555.188,1.7.094,3.4.191,5.093.191a23.863,23.863,0,0,0,9.075-1.488,10.36,10.36,0,0,1,1.682-.112l1.106.012a6.613,6.613,0,0,0,3.217-.621,8.72,8.72,0,0,0,.873.044,4.625,4.625,0,0,0,.973-.165c.094-.017.191-.023.285-.047a3.548,3.548,0,0,0,.832-.329c.082-.044.156-.112.232-.162a3.3,3.3,0,0,0,.7-.494c4.041-1.35,6-4.8,7.725-7.852l.4-.717c.979-1.765,1.988-3.591,3.8-4.541,5.393-2.835,7.328-8.01,9.2-13.021l.5-1.414c1.812-.4,2.92-1.038,3.388-1.944.638-1.244-.035-2.82-.682-4.346-.247-.579-.491-1.159-.7-1.753-.465-.3-.918-.638-1.37-.973-1.444-1.068-2.935-2.173-4.8-2.173a5.147,5.147,0,0,0-1.782.332l-1.123,1.544a26.484,26.484,0,0,0-2.006,2.435c-1.729,2.285-3.52,4.643-6.993,4.887-.547.035-1.173.806-1.444,1.338a16.029,16.029,0,0,1-4.682,4.984c-.709.565-1.417,1.126-2.085,1.735-3.785,3.441-7.366,5.514-11.033,6.37-.1.023-.2.05-.3.071a17.4,17.4,0,0,1-3.617.391h-.023a19.313,19.313,0,0,1-2.629-.191l-.215-.032a30.9,30.9,0,0,1-9.072-3.041A4.448,4.448,0,0,0,384,264.033a7.025,7.025,0,0,0-2.344.459,2.179,2.179,0,0,0-1.038,1.2l-5.467,2.508-9.828-1.994a4.66,4.66,0,0,0-3.473-1.262c-.573,0-1.156.053-1.741.106l-.421.056a3.355,3.355,0,0,0-1.664-.609,2.577,2.577,0,0,1-2.008-1l.053-.2.1-.162-.091.112.041-.153-.194.279-.715-.015-.653.029a2.669,2.669,0,0,0-.182-.5,19.111,19.111,0,0,0-5.734-2.5c-.915.068-1.835.2-2.758.323a28.764,28.764,0,0,1-3.926.371,8.037,8.037,0,0,1-5.332-1.738,8.885,8.885,0,0,1-1.312-1.356h-.059a.739.739,0,0,1-.068-.068l-.3-.085a1.565,1.565,0,0,0-.109-.512l-1.97.029-1.941.05a.725.725,0,0,0-.524-.247.454.454,0,0,0-.344.135c-2.482-1.717-5.211-1.859-7.8-1.859l-2.123.012c-.685,0-1.37-.012-2.067-.056-1.332.3-1.514,1.285-1.688,2.238a6.2,6.2,0,0,1-.227.962l-.376,3.588-.691,1.135-2.12,1.767a1.859,1.859,0,0,0-.329-.026c-1.062,0-1.453.844-1.835,1.659-.773,1.661-1.788,3.361-3.447,3.361a2.653,2.653,0,0,1-.6-.074c-1.585-.373-1.526-1.814-1.464-3.214a7.932,7.932,0,0,0-.029-1.426,4.092,4.092,0,0,0-2.6-1.029,4.3,4.3,0,0,0-2.379.8c-.056.162-.138.253-.394.253-.047,0-.1,0-.162-.009-1.462.556-1.423,1.767-1.373,3.2l.456.829-.732.479a10.068,10.068,0,0,0-3.258,2.841c-.626.112-.873.573-1.109,1.02-.082.153-.165.306-.273.494.282,1.564-.606,2.464-1.544,3.411a5.283,5.283,0,0,0-1.523,2.164c-.344.523-.714,1.047-1.091,1.573-1.811,2.538-3.62,5.149-2.07,7.99a6.411,6.411,0,0,0,.565.871c.109.138.241.279.368.417a10.662,10.662,0,0,0,1.217,1.179,1.68,1.68,0,0,1-1.012.312,5.6,5.6,0,0,1-1.4-.256,5.922,5.922,0,0,0-1.5-.271,2.359,2.359,0,0,0-2.156,1.559c-.985,1.917-.224,3.152.515,4.346a9.048,9.048,0,0,1,.706,1.279c1,5.675,1.476,11.133-3.585,15.447a2.565,2.565,0,0,0-.685,1.532,2.955,2.955,0,0,1-.659,1.567l-.029,2.029-2.094,3.835a16.556,16.556,0,0,0-3.117,18.965l.088,1.97.153,2.476c-4.77,2.794-4.855,7.643-4.917,11.88a1.284,1.284,0,0,0-.335,1.185c-1.094,3.085-3.982,4.573-6.746,5.876A5.88,5.88,0,0,0,261.771,365.622Zm109.906-44a.55.55,0,0,1-.247.076,1.057,1.057,0,0,1-.626-.279,3.081,3.081,0,0,0,.691.144C371.556,321.585,371.618,321.612,371.677,321.626Zm16.668-6.634c.118-.191.235-.382.344-.588l.138.1a2.548,2.548,0,0,1-.288.324A2.046,2.046,0,0,1,388.345,314.992Z" transform="translate(398.763 -127.176)" fill="#881d1f"/>
  <path id="Path_109" data-name="Path 109" d="M364.626,275.947c.662.056,1.32.106,1.979.106a7.108,7.108,0,0,0,3.743-.923l.435-.188.191-.053-.024-.02.068-.03-.6-.547a3.2,3.2,0,0,0-3.582-2.626c-.379,0-.765.024-1.153.044s-.75.041-1.264.041h-.03c-1.35,0-2.011.682-2.079,2.144C362.226,275.62,363.4,275.852,364.626,275.947Z" transform="translate(601.3 -74.15)" fill="#881d1f"/>
  <path id="Path_110" data-name="Path 110" d="M278.664,333.563a4.323,4.323,0,0,0,1.414-.262L282,331.1a3.492,3.492,0,0,0-.5-2.85,2.7,2.7,0,0,0-2.211-.747h-.041a3.963,3.963,0,0,0-2.223.759,1.044,1.044,0,0,0-.094.062,3.257,3.257,0,0,0-.376.256,2.484,2.484,0,0,0-.556,1.914C276.165,332.475,277.115,333.563,278.664,333.563Z" transform="translate(433.767 34.219)" fill="#881d1f"/>
  <path id="Path_111" data-name="Path 111" d="M320.956,239.948c.056.094.194.144.288.221l.044.035a2.243,2.243,0,0,0,1.37.391l.326-.012c2.45-.176,2.844-2.07,2.908-3.9.056-1.582-.862-2.385-2.82-2.458a2.407,2.407,0,0,0-1.741.738,2.44,2.44,0,0,0-.127,1.917,2.615,2.615,0,0,1-.056,1.788A1.253,1.253,0,0,0,320.956,239.948Z" transform="translate(520.854 -146.81)" fill="#881d1f"/>
  <path id="Path_112" data-name="Path 112" d="M370.758,338.587c-.394-.867-.8-1.767-1.885-2.088a6.1,6.1,0,0,0-3.85-1.932,9.055,9.055,0,0,0-1.129-.079,2.9,2.9,0,0,0-2.253.75c-.756.823-.632,2.223-.511,3.579.047.523.091,1.047.091,1.553.726,3.241,1.761,4.687,3.364,4.687a6.6,6.6,0,0,0,3.567-1.585l.37-.05c.6-.065,1.279-.144,1.353-1.041l1.044-.985a1.414,1.414,0,0,0,.227-2.011C371,339.131,370.882,338.861,370.758,338.587Z" transform="translate(598.846 47.771)" fill="#881d1f"/>
  <path id="Path_113" data-name="Path 113" d="M344.551,332.313a7.421,7.421,0,0,1-.967-.123,6.964,6.964,0,0,0-1.109-.124,1.885,1.885,0,0,0-1.853,1.247c.471.72.006,1.412-.444,2.076a2.285,2.285,0,0,0-.606,1.582,1.5,1.5,0,0,0,.72.912,3.9,3.9,0,0,0,2.076.518,3.428,3.428,0,0,0,1.676-.367c1.741-1,1.323-2.412.92-3.773A8.413,8.413,0,0,1,344.551,332.313Z" transform="translate(557.147 43.07)" fill="#881d1f"/>
  <path id="Path_114" data-name="Path 114" d="M219.4,327.6a2.973,2.973,0,0,0-1.473.488c-1.365.809-2.091,1.638-2.217,2.541a3.152,3.152,0,0,0,1.12,2.541,6.534,6.534,0,0,0,.85.15c.1.021.2.035.291.053a7.089,7.089,0,0,0,.841.15,2.451,2.451,0,0,0,2.2-1.141,3.219,3.219,0,0,0,.347-.641c.023-.062.053-.109.074-.174a5.748,5.748,0,0,0,.312-1.259l-.056-.124c0-.044.018-.071.021-.115C221.169,328.858,220.616,327.6,219.4,327.6Z" transform="translate(316.758 34.407)" fill="#881d1f"/>
  <path id="Path_115" data-name="Path 115" d="M165.874,237.96a2.717,2.717,0,0,0,.429-.035c1.841-.294,2.611-1.861,3.188-3.361-.55-1.15-1.221-2.373-2.291-2.373a1.577,1.577,0,0,0-.456.071,4.184,4.184,0,0,0-3.123,3.458,2.046,2.046,0,0,0,.544,1.538A2.337,2.337,0,0,0,165.874,237.96Z" transform="translate(215.708 -150.759)" fill="#881d1f"/>
  <path id="Path_116" data-name="Path 116" d="M273.634,333.85c-.162.579.2,1.3,1.117,2.214a5.034,5.034,0,0,1,.9.888c.518.594,1.053,1.206,1.841,1.206a2.24,2.24,0,0,0,1.32-.515l.332-4.679c2.629-4.952,2.506-6.734-1.288-17.382-2.829.865-3.314,3.241-3.414,5.446a36.861,36.861,0,0,0,1.056,11.578C274.4,332.889,273.788,333.3,273.634,333.85Z" transform="translate(429.146 11.082)" fill="#881d1f"/>
  <path id="Path_117" data-name="Path 117" d="M434.54,320.532c.812,0,1.344-.068,1.679-.415.562-.579.515-1.879.385-4.967,1.532-1.626,2-3.158,1.432-4.673a10.492,10.492,0,0,0-2.844-3.529l-.756-.721c-.373-.368-.77-.7-1.164-1.038a8.052,8.052,0,0,1-2.623-3.17c-2.846-7.143-6.32-9.557-13.88-9.554h-.553a21.661,21.661,0,0,1-8.078-1.111l-3.814-1.023a2.756,2.756,0,0,0-2.191-1.141,3.378,3.378,0,0,1-1.8-.65,1.925,1.925,0,0,0-.05-1.026,8.042,8.042,0,0,0-3.1-.877,3.422,3.422,0,0,0-2.894,1.679l-1.991,2.514a4.75,4.75,0,0,0-1.332.823,3.031,3.031,0,0,1-1.641.847,1.247,1.247,0,0,1-.844-.365c-3.067-2.738-6.522-3.105-9.5-3.105-1.008,0-2.02.047-3.032.091s-2.014.091-3.017.091c-.609,0-1.217-.015-1.823-.059-1.135-.085-2.273-.147-3.385-.147-4.258,0-8.963.8-11.51,6.714a3.059,3.059,0,0,1-1.429,1.141,8.7,8.7,0,0,0-.818.482l-8.854,2.92c-2.3.329-3.708.688-4.126,1.526-.385.779.1,1.941,1.05,3.6a5.655,5.655,0,0,1,2.061.732,5.618,5.618,0,0,0,2.217.756c1.112,0,1.776-1.006,2.082-3.164a6.223,6.223,0,0,1,2.332-.259,11.664,11.664,0,0,1,1.273.062c1.22.147,1.182,1.012,1.144,1.929a5.9,5.9,0,0,0,0,.721,26.809,26.809,0,0,1-.006,3.073,13.255,13.255,0,0,0,.7,6.075,3.4,3.4,0,0,0,.432,2.491,1.277,1.277,0,0,0,1,.415,3.133,3.133,0,0,0,1.173-.277,5.194,5.194,0,0,1,1.988-.423,5.673,5.673,0,0,1,2.05.426c.159.015.321.021.479.021a11.943,11.943,0,0,0,5.42-1.747,15.961,15.961,0,0,1,3.873-1.576,5.773,5.773,0,0,0,1-.467l.473.132s1.1-.115,1.426-.162a4.173,4.173,0,0,1,.615-.041c.306,0,.623.023.944.047s.644.05.956.05a2.28,2.28,0,0,0,2.485-1.735c.623-1.929-.132-3.585-2.238-4.914-.15-.091-.159-.473-.168-.809a.857.857,0,0,0-.071-.429l3.449-1.512,3.373-1.532.926,1.067c-.053,1.047.082,2.047,1.358,2.317.915.194,1.823.4,2.735.6,2.35.529,4.779,1.07,7.2,1.4a10.276,10.276,0,0,0,1.388.1,7.067,7.067,0,0,0,5.2-2.244,5.254,5.254,0,0,1,3.67-1.647,6.2,6.2,0,0,1,4.687,2.623,11.986,11.986,0,0,0,9.651,4.788l.529-.021,13.8,8.266Z" transform="translate(559.695 -45.092)" fill="#881d1f"/>
  <path id="Path_118" data-name="Path 118" d="M72.584,255.18c-2.532-.844-3.788-2.356-5.105-4.673a8.06,8.06,0,0,0-3.305-3.329l-.021-.012a5.573,5.573,0,0,0-2.514-.665,8.622,8.622,0,0,0-4.67,1.614,5.5,5.5,0,0,1-2.958,1.2c-.153,0-.576-.009-.606-.009a3.193,3.193,0,0,0-.335,2.544c.312.864,1.112,1.547,2.585,2.205a13.309,13.309,0,0,1,.988,1.17c.062.076.124.153.182.232a32.065,32.065,0,0,1,2.52,4.276,30.536,30.536,0,0,0,2.708,4.535,27.3,27.3,0,0,1,4.646,7.825,4.315,4.315,0,0,0,4.252,2.994,7.975,7.975,0,0,0,1.782-.224c2.705-.635,3.982-2.279,3.8-4.887l-.026-.344a7.854,7.854,0,0,1,.371-3.935C78.4,260.861,76.642,256.538,72.584,255.18Z" transform="translate(0.898 -122.984)" fill="#881d1f"/>
  <path id="Path_119" data-name="Path 119" d="M63.6,245.943,62.533,244.9a7.751,7.751,0,0,0-.635-.794c-.141-.191-.288-.379-.441-.556a10.2,10.2,0,0,0-1.764-1.588l-.018-.012a24.083,24.083,0,0,0-5.182-2.561l-.841-.323a15.585,15.585,0,0,0-1.588-.879c-1.676-.85-3.258-1.653-3.611-3.905a4.186,4.186,0,0,0-3.167-1.829c-1.57,0-3.026,1.25-4.241,2.473a5.509,5.509,0,0,0-1.947,4.143,5.329,5.329,0,0,0,2.364,3.761c1.447,1.85,3.579,2.511,5.94,3.238a26.933,26.933,0,0,1,6.484,2.75l.112.074a14.3,14.3,0,0,1,2.05,1.6c.156.144.306.3.459.45.279.288.559.579.82.9a4.9,4.9,0,0,0,3.661,2.064h0a3.809,3.809,0,0,0,1.617-.376c1.782-.832,1.756-2.438,1.729-3.993-.009-.418-.018-.835.012-1.232a4.062,4.062,0,0,0-.585-2.023Z" transform="translate(-25.96 -150.258)" fill="#881d1f"/>
  <path id="Path_120" data-name="Path 120" d="M95.828,304.6a3.412,3.412,0,0,0,.523-.409c1.744-1.891.991-3.538.024-4.89l-.488-.859c-.891-1.6-1.817-3.249-3.691-3.993L90.5,291.29a1.946,1.946,0,0,1-.485-1.644,1.966,1.966,0,0,0-.647-1.835,12.441,12.441,0,0,1-1.312-.912,12.321,12.321,0,0,0-1.462-1c-.312-.168-.623-.359-.938-.556a6.112,6.112,0,0,0-3-1.206,2.735,2.735,0,0,0-1.817.72c-2.291,1.932-1.326,4.364-.085,6.467a11.316,11.316,0,0,0,5.352,7.328c2.391,1.485,3.532,4.126,4.637,6.678.332.77.665,1.535,1.026,2.264a2.608,2.608,0,0,0,2.411,1.747,4.553,4.553,0,0,0,1.22-.2c.715-.206,1.1-.482,1.188-.847.132-.544-.465-1.147-1.035-1.67-.429-.394-.629-.735-.606-1.044C94.981,305.17,95.431,304.867,95.828,304.6Z" transform="translate(52.374 -49.938)" fill="#881d1f"/>
  <path id="Path_121" data-name="Path 121" d="M87.265,288.885a1.983,1.983,0,0,1-.4-1.364c-.344-.538-.67-1.088-1-1.641a21.276,21.276,0,0,0-2.479-3.6,6.27,6.27,0,0,0-4.446-2.229,4.349,4.349,0,0,0-1.838.409c-1.809.832-1.453,2.535-1.138,4.038a11.009,11.009,0,0,1,.226,1.32c.118,1.362,1.12,1.6,2.085,1.829a4.867,4.867,0,0,1,1.638.659c.032.032.074.05.1.082.029,0,.044.015.071.015.026.021.056.024.082.047a3.126,3.126,0,0,1,2.1,1.091,4.466,4.466,0,0,0,1.344.959,5.059,5.059,0,0,1,.829.444,3.11,3.11,0,0,0,1.544.606,1.715,1.715,0,0,0,1.156-.491C88.053,290.264,87.653,289.564,87.265,288.885Z" transform="translate(45.113 -57.881)" fill="#881d1f"/>
  <path id="Path_122" data-name="Path 122" d="M103.718,311l-.488.027a.552.552,0,0,1-.391.121,3.48,3.48,0,0,1-.609-.082,4.129,4.129,0,0,0-.753-.1c-.635,0-1.018.335-1.2,1.059-.335,1.332.621,1.985,1.547,2.611.206.138.409.276.591.418.456.353.918.694,1.382,1.035.85.626,1.7,1.25,2.488,1.941.2.176.4.371.591.568a3.087,3.087,0,0,0,1.944,1.2,2.235,2.235,0,0,0,1.541-.815,3.614,3.614,0,0,0,.018-5.364A8.445,8.445,0,0,0,103.718,311Z" transform="translate(92.65 2.129)" fill="#881d1f"/>
  <path id="Path_123" data-name="Path 123" d="M66.143,260.916c.5,1.9,1.744,2.785,3.973,2.782h.609c1.556,0,3.114.041,4.67.082l2.376.056a.064.064,0,0,0,.065-.056c.335-4.091-2.144-4.346-4.54-4.6a12.363,12.363,0,0,1-2.323-.391l-2.932.185A2.685,2.685,0,0,0,66.143,260.916Z" transform="translate(26.539 -99.136)" fill="#881d1f"/>
  <path id="Path_124" data-name="Path 124" d="M58.582,247.344l.071-.006c1.547-.353,1.809-1.62,2.058-2.846.05-.25.1-.5.165-.762-.2-2.9-1.6-4.373-4.182-4.373l-.706.021-1.117-.032c-.947,0-1.838.224-1.923,1.853-.032.594,1.367,2.4,2.767,3.876C56.22,245.606,57.92,247.344,58.582,247.344Z" transform="translate(0.929 -136.873)" fill="#881d1f"/>
  <path id="Path_125" data-name="Path 125" d="M88.7,289l-2.061-2.217-.694-.717.068-1.126-2.461-4.708a.847.847,0,0,0-.038-.762.772.772,0,0,0-.65-.259h-.029c-.8-.479-.841-1.268-.847-2.1a.889.889,0,0,0-.4-.091,1.88,1.88,0,0,0-.406.059h-.012c.47-2.567-1.291-3.835-2.973-4.99a2.325,2.325,0,0,0-.576-2.082c-.168-.25-.338-.5-.506-.8a2.292,2.292,0,0,0-.462-.044,3.837,3.837,0,0,0-2.267,1.026,3.682,3.682,0,0,1-2.238,1h0c-2.347.012-3.617,1.279-3.993,3.973L67,277.109a2.578,2.578,0,0,0,.129,3.061l.991.985c-.162,1.656.882,2.5,1.891,3.305.318.256.635.512.9.771l.656,1.626c-.094,1.847.124,3.852,2.376,4.661l.1.685.129.732,6.464,3.564c.094.256.179.517.262.832a3.141,3.141,0,0,0,2.023,1,2.509,2.509,0,0,0,2.044-1.491l2.006-1.788c2.764-.762,2.373-2.444,1.994-4.07A6.912,6.912,0,0,1,88.7,289Z" transform="translate(27.341 -79.005)" fill="#881d1f"/>
  <path id="Path_126" data-name="Path 126" d="M70.992,245.788a4.013,4.013,0,0,1-.9-.785l-.632-.129a9.211,9.211,0,0,0-1.9-.268,3.442,3.442,0,0,0-1.512.323c-.873,1.347-1.129,2.185-.841,2.72.044.076.153.109.218.171l.035.026a2.126,2.126,0,0,0,1.485.432c.244,0,.515-.015.818-.044.959-.094,1.926-.115,2.891-.138l1.388-.079C72.418,246.8,71.695,246.285,70.992,245.788Z" transform="translate(24.498 -126.663)" fill="#881d1f"/>
  <path id="Path_127" data-name="Path 127" d="M72.507,277.815c.709-.738,1.591-1.658.985-3.005l.032-.547c.115-1.894.235-3.849-.812-5.6.229-3.2-1.667-5.458-3.114-6.878a3.518,3.518,0,0,0-2.532-1.053,5.287,5.287,0,0,0-2.514.72c-.444.247-.685.506-.735.788-.074.394.244.77.55,1.129a1.6,1.6,0,0,1,.55,1.232c-.012.035,0,.065-.021.1h.009c-.009.024,0,.041-.009.065.162.038.335.056.506.079.656.085,1.276.162,1.4,1.032a2.4,2.4,0,0,0-.012,1.423,1.947,1.947,0,0,1-.171,1.658,16.063,16.063,0,0,1-.568,2.082c-.491,1.517-1,3.088-.388,4.767a4.3,4.3,0,0,0,.365,2.011,1.274,1.274,0,0,0,.074.141,1.963,1.963,0,0,0,.221.429,2,2,0,0,0,1.529.526,10.288,10.288,0,0,0,1.344-.123,10.107,10.107,0,0,1,1.329-.124,3.226,3.226,0,0,1,1.115.191l.935-.173A.7.7,0,0,0,72.507,277.815Z" transform="translate(22.004 -95.371)" fill="#881d1f"/>
  <path id="Path_128" data-name="Path 128" d="M326.344,338.391c-2.135.065-3.529,1.309-4.026,3.6a2.8,2.8,0,0,0,.182,1.8v.006a1.98,1.98,0,0,0,.144.359,1.225,1.225,0,0,0,.988.462l.165-.012a5.116,5.116,0,0,0,4.5-3.732,2.507,2.507,0,0,0-.488-1.967,1.847,1.847,0,0,0-1.456-.517Z" transform="translate(523.562 55.345)" fill="#881d1f"/>
  <path id="Path_129" data-name="Path 129" d="M292.087,308.777a2.671,2.671,0,0,0-.673-.1,3.03,3.03,0,0,0-2.114,1.194,5.83,5.83,0,0,1-1.176.985l-.276,1.682a4.17,4.17,0,0,0,.188,5.164l2.7,4.014a5.719,5.719,0,0,0,3,2.705l.023,0,.029-.006a.061.061,0,0,0,.032-.038c.085-.294.353-.465.629-.647.406-.259.821-.526.7-1.179a7.26,7.26,0,0,1,.779-4c.229-1.776.47-3.614-.717-5.205C295.019,311.447,294.6,309.365,292.087,308.777Z" transform="translate(455.239 -2.315)" fill="#881d1f"/>
  <path id="Path_130" data-name="Path 130" d="M254.743,352.742c1.05-.9,1.088-2.205,1-3.641a1.8,1.8,0,0,0,.75-.676,5.09,5.09,0,0,0,.95-4.105c-.376-1.338-1.564-2.461-3.738-3.538a15.683,15.683,0,0,0-7.034-1.87,12,12,0,0,0-4.535.894,5.168,5.168,0,0,0-4.311,3.917l-.9,1.388-.241.494-.024.038h.006l-.026.059.3.073a3.324,3.324,0,0,0-.294,2.382l-.044.512c-.074.835-.144,1.664-.273,2.458-.873,2.379-3.27,3.485-5.54,4.32.085,1.256.391,2.617,1.985,3.158,1.476,1.653,3.555,1.806,5.387,1.815l1.394.006c3.111,0,6.223-.056,9.334-.109l3.494-.124.838-.014,0-.015.065,0C252.52,357.615,252.17,354.947,254.743,352.742Z" transform="translate(346.066 56.356)" fill="#881d1f"/>
  <path id="Path_131" data-name="Path 131" d="M310.872,365.829l-2.652-2.05-.538-.571a7.49,7.49,0,0,0-3.311-2.45c-1.235-1.609-3.029-2.282-4.767-2.932l-1.038-.394-1.029-1.232c-2.667-3.223-5.684-6.872-8.843-6.872a4.017,4.017,0,0,0-.923.106,46.4,46.4,0,0,1-9.869.923c-4.705.1-9.572.2-14.036,2.47-2.55,1.585-3.749,2.929-3.894,4.361-.165,1.594.941,3.391,3.694,6.011a7.432,7.432,0,0,0,5.214,1.753c.741,0,1.494-.053,2.247-.106s1.494-.109,2.235-.109a10.316,10.316,0,0,1,1.905.159,5.981,5.981,0,0,0,1.115.082l1.179-.015c1.344,0,2.691.176,3.185,2.341,2.017,2.535,4.823,3.838,7.972,5.114a2.027,2.027,0,0,0,1.359,1.812c.432,2.967,2.723,3.788,4.938,4.585.567.2,1.135.4,1.706.647l.332-.059.3.268a3.241,3.241,0,0,0,1.594.517,1.527,1.527,0,0,0,1.176-.5,2.305,2.305,0,0,0,1.432.738h.012l3.379-1.018c.165-.115.324-.244.485-.373a3.309,3.309,0,0,1,1.056-.659c4.879-1.47,7.211-2.908,7.793-4.817a4.2,4.2,0,0,0,.044-.553c.009-.068.012-.138.015-.209C314.466,371.084,313.439,368.955,310.872,365.829Z" transform="translate(402.671 76.573)" fill="#881d1f"/>
  <path id="Path_132" data-name="Path 132" d="M293.1,360.025a5.054,5.054,0,0,0-.921.079c-.182.171-.376.329-.57.488a5.572,5.572,0,0,0-1.161,1.162,5.07,5.07,0,0,1-2.153,1.459c-.991.459-1.929.9-2.2,1.712a2.193,2.193,0,0,0,.288,1.735,2.854,2.854,0,0,0,2.8,1.438,15.614,15.614,0,0,0,3.017-.423c.429-.088.853-.176,1.25-.244a2.479,2.479,0,0,0,.476-.156l1.044-.614c1.317-.526,2.811-1.123,2.661-3.117C296.709,361.175,295.227,360.025,293.1,360.025Z" transform="translate(453.243 97.33)" fill="#881d1f"/>
</svg>
